<svg xmlns="http://www.w3.org/2000/svg" xmlns:xlink="http://www.w3.org/1999/xlink" width="60" zoomAndPan="magnify" viewBox="0 0 45 44.999999" height="60" preserveAspectRatio="xMidYMid meet" version="1.0"><defs><clipPath id="9357327d37"><path d="M 7 19 L 29 19 L 29 37 L 7 37 Z M 7 19 " clip-rule="nonzero"/></clipPath><clipPath id="c7a25a9b16"><path d="M 10.863281 15.34375 L 33.007812 29.441406 L 26.5625 39.566406 L 4.417969 25.464844 Z M 10.863281 15.34375 " clip-rule="nonzero"/></clipPath><clipPath id="2c40004a0b"><path d="M 10.863281 15.34375 L 33.007812 29.441406 L 26.5625 39.566406 L 4.417969 25.464844 Z M 10.863281 15.34375 " clip-rule="nonzero"/></clipPath><clipPath id="28df718f14"><path d="M 10.863281 15.34375 L 33.007812 29.441406 L 26.5625 39.566406 L 4.417969 25.464844 Z M 10.863281 15.34375 " clip-rule="nonzero"/></clipPath><clipPath id="90d7866386"><path d="M 17 12 L 40 12 L 40 28 L 17 28 Z M 17 12 " clip-rule="nonzero"/></clipPath><clipPath id="f57158ca5e"><path d="M 36.375 31.800781 L 13.441406 19.027344 L 19.28125 8.542969 L 42.214844 21.316406 Z M 36.375 31.800781 " clip-rule="nonzero"/></clipPath><clipPath id="ad617d3a21"><path d="M 36.375 31.800781 L 13.441406 19.027344 L 19.28125 8.542969 L 42.214844 21.316406 Z M 36.375 31.800781 " clip-rule="nonzero"/></clipPath><clipPath id="7bd69044e6"><path d="M 17 11 L 40 11 L 40 28 L 17 28 Z M 17 11 " clip-rule="nonzero"/></clipPath><clipPath id="b0c19099d4"><path d="M 36.375 31.800781 L 13.441406 19.027344 L 19.28125 8.542969 L 42.214844 21.316406 Z M 36.375 31.800781 " clip-rule="nonzero"/></clipPath><clipPath id="a4c9b81ee0"><path d="M 36.375 31.800781 L 13.441406 19.027344 L 19.28125 8.542969 L 42.214844 21.316406 Z M 36.375 31.800781 " clip-rule="nonzero"/></clipPath></defs><g clip-path="url(#9357327d37)"><g clip-path="url(#c7a25a9b16)"><g clip-path="url(#2c40004a0b)"><g clip-path="url(#28df718f14)"><path fill="#173475" d="M 22.265625 31.632812 C 22.265625 31.632812 21.9375 31.570312 21.578125 31.195312 C 21.21875 30.824219 21.035156 30.308594 20.589844 29.796875 C 20.148438 29.285156 19.214844 28.921875 19.214844 28.921875 C 19.214844 28.921875 20.355469 28.511719 21.308594 28.9375 C 22.132812 29.308594 22.996094 30.382812 22.996094 30.382812 C 22.996094 30.382812 24.257812 27.359375 23.375 25.082031 C 22.585938 23.035156 21.597656 22.320312 20.664062 21.953125 C 19.730469 21.589844 19.125 21.917969 18.582031 21.65625 C 18.035156 21.394531 18.285156 20.066406 16.65625 19.71875 C 15.03125 19.367188 14.917969 20.753906 14.371094 20.808594 C 13.828125 20.859375 13.375 20.230469 12.324219 20.359375 C 11.273438 20.492188 11.21875 21.027344 10.109375 21.207031 C 9 21.386719 7.53125 20.878906 7.53125 20.878906 C 7.53125 20.878906 8.683594 21.300781 8.925781 22.167969 C 9.167969 23.039062 8.832031 24.28125 9.292969 25.03125 C 9.753906 25.785156 11.328125 25.5 11.75 26.3125 C 12.171875 27.121094 11.683594 28.242188 12.554688 29.195312 C 13.425781 30.152344 15.800781 29.546875 16.953125 30.511719 C 18.105469 31.472656 18.082031 34.144531 20.390625 35.472656 C 22.703125 36.800781 28.859375 35.660156 28.859375 35.660156 C 28.859375 35.660156 27.855469 35.9375 27.066406 34.722656 C 26.277344 33.503906 26.332031 31.753906 25.421875 30.699219 C 24.648438 29.808594 23.265625 29.839844 22.675781 31.039062 C 22.082031 32.234375 22.390625 33.085938 23.152344 33.542969 C 23.914062 34 24.523438 33.445312 24.734375 32.980469 C 24.949219 32.511719 24.765625 31.578125 24.042969 31.566406 C 23.535156 31.558594 23.320312 32.390625 23.320312 32.390625 " fill-opacity="1" fill-rule="nonzero"/><path fill="#ffffff" d="M 28.988281 35.632812 C 28.972656 35.5625 28.90625 35.515625 28.835938 35.53125 C 28.832031 35.53125 28.800781 35.535156 28.738281 35.546875 C 28.644531 35.558594 28.476562 35.566406 28.277344 35.515625 C 27.851562 35.410156 27.484375 35.117188 27.179688 34.648438 C 26.828125 34.105469 26.640625 33.433594 26.464844 32.78125 C 26.25 32.003906 26.03125 31.203125 25.519531 30.613281 C 25.101562 30.125 24.496094 29.882812 23.902344 29.960938 C 23.648438 29.996094 23.410156 30.082031 23.199219 30.226562 C 23.304688 29.929688 23.5 29.34375 23.644531 28.613281 C 23.765625 28 23.824219 27.414062 23.820312 26.871094 C 23.8125 26.1875 23.707031 25.566406 23.5 25.03125 C 23.128906 24.070312 22.691406 23.339844 22.167969 22.796875 C 21.753906 22.363281 21.292969 22.058594 20.714844 21.832031 C 20.183594 21.625 19.742188 21.628906 19.390625 21.636719 C 19.105469 21.640625 18.859375 21.640625 18.636719 21.535156 C 18.492188 21.464844 18.410156 21.269531 18.304688 21.023438 C 18.097656 20.519531 17.808594 19.828125 16.6875 19.589844 C 16.175781 19.480469 15.757812 19.519531 15.410156 19.710938 C 15.109375 19.878906 14.910156 20.128906 14.75 20.328125 C 14.605469 20.515625 14.488281 20.660156 14.359375 20.675781 C 14.171875 20.691406 13.984375 20.609375 13.75 20.503906 C 13.398438 20.34375 12.960938 20.148438 12.308594 20.230469 C 11.753906 20.296875 11.453125 20.480469 11.164062 20.65625 C 10.882812 20.828125 10.613281 20.992188 10.085938 21.074219 C 9.023438 21.246094 7.585938 20.757812 7.574219 20.753906 C 7.503906 20.730469 7.429688 20.765625 7.40625 20.835938 C 7.378906 20.90625 7.414062 20.980469 7.484375 21.003906 C 7.496094 21.007812 8.578125 21.414062 8.796875 22.207031 C 8.894531 22.554688 8.894531 22.984375 8.894531 23.402344 C 8.894531 24.007812 8.894531 24.636719 9.179688 25.101562 C 9.433594 25.515625 9.957031 25.644531 10.464844 25.769531 C 10.96875 25.890625 11.441406 26.007812 11.632812 26.371094 C 11.789062 26.675781 11.808594 27.039062 11.832031 27.421875 C 11.867188 28.015625 11.90625 28.683594 12.457031 29.289062 C 12.929688 29.804688 13.765625 29.890625 14.652344 29.984375 C 15.476562 30.070312 16.328125 30.160156 16.867188 30.613281 C 17.296875 30.972656 17.558594 31.59375 17.859375 32.3125 C 18.089844 32.863281 18.351562 33.480469 18.726562 34.054688 C 19.117188 34.65625 19.585938 35.121094 20.144531 35.476562 C 20.203125 35.515625 20.261719 35.550781 20.324219 35.585938 C 20.867188 35.898438 21.660156 36.105469 22.675781 36.195312 C 23.480469 36.265625 24.429688 36.265625 25.5 36.195312 C 27.042969 36.097656 28.394531 35.875 28.777344 35.808594 C 28.847656 35.800781 28.886719 35.789062 28.894531 35.789062 C 28.960938 35.769531 29.003906 35.699219 28.988281 35.632812 Z M 22.898438 30.476562 C 22.765625 30.621094 22.648438 30.789062 22.554688 30.980469 C 22.464844 31.164062 22.390625 31.347656 22.335938 31.523438 C 22.324219 31.515625 22.308594 31.507812 22.292969 31.503906 C 22.289062 31.503906 21.996094 31.4375 21.671875 31.105469 C 21.503906 30.925781 21.367188 30.707031 21.226562 30.476562 C 21.082031 30.242188 20.917969 29.972656 20.691406 29.710938 C 20.535156 29.527344 20.320312 29.363281 20.109375 29.230469 C 19.933594 29.117188 19.757812 29.023438 19.613281 28.953125 C 20.011719 28.871094 20.675781 28.800781 21.253906 29.058594 C 22.039062 29.410156 22.882812 30.457031 22.890625 30.46875 C 22.894531 30.472656 22.898438 30.472656 22.898438 30.476562 Z M 25.480469 35.933594 C 23.117188 36.085938 21.378906 35.886719 20.457031 35.355469 C 19.097656 34.574219 18.570312 33.320312 18.105469 32.210938 C 17.789062 31.457031 17.515625 30.808594 17.039062 30.40625 C 16.972656 30.355469 16.90625 30.304688 16.835938 30.261719 C 16.246094 29.886719 15.453125 29.800781 14.679688 29.722656 C 13.847656 29.632812 13.058594 29.550781 12.65625 29.109375 C 12.167969 28.574219 12.132812 27.980469 12.097656 27.40625 C 12.074219 26.992188 12.050781 26.601562 11.867188 26.25 C 11.625 25.78125 11.066406 25.644531 10.527344 25.511719 C 10.050781 25.394531 9.601562 25.28125 9.40625 24.964844 C 9.160156 24.558594 9.160156 23.972656 9.160156 23.402344 C 9.160156 22.964844 9.160156 22.515625 9.054688 22.132812 C 8.949219 21.765625 8.703125 21.472656 8.4375 21.253906 C 8.941406 21.355469 9.574219 21.429688 10.128906 21.339844 C 10.707031 21.246094 11.007812 21.0625 11.300781 20.882812 C 11.578125 20.714844 11.839844 20.554688 12.339844 20.492188 C 12.921875 20.421875 13.304688 20.59375 13.640625 20.746094 C 13.890625 20.859375 14.125 20.964844 14.382812 20.9375 C 14.625 20.914062 14.789062 20.710938 14.960938 20.492188 C 15.277344 20.089844 15.636719 19.636719 16.628906 19.847656 C 17.617188 20.058594 17.863281 20.652344 18.0625 21.125 C 18.183594 21.414062 18.285156 21.664062 18.523438 21.777344 C 18.800781 21.910156 19.089844 21.90625 19.394531 21.902344 C 19.742188 21.894531 20.132812 21.890625 20.617188 22.078125 C 21.414062 22.390625 22.4375 23.023438 23.253906 25.128906 C 23.695312 26.277344 23.570312 27.625 23.386719 28.558594 C 23.25 29.257812 23.058594 29.835938 22.953125 30.128906 C 22.667969 29.800781 22.011719 29.109375 21.363281 28.816406 C 20.375 28.375 19.21875 28.777344 19.171875 28.796875 C 19.167969 28.796875 18.867188 28.90625 18.402344 28.910156 C 17.972656 28.914062 17.308594 28.828125 16.585938 28.394531 C 15.667969 27.847656 15.566406 27.277344 15.445312 26.617188 C 15.382812 26.273438 15.320312 25.917969 15.132812 25.546875 C 14.933594 25.148438 14.675781 24.820312 14.429688 24.566406 C 15.070312 24.835938 15.917969 25.15625 16.574219 25.273438 C 17.265625 25.402344 17.894531 25.203125 18.449219 25.027344 C 18.816406 24.910156 19.132812 24.8125 19.394531 24.828125 C 19.777344 24.855469 19.996094 25.054688 20.113281 25.222656 C 20.296875 25.488281 20.339844 25.824219 20.289062 26.019531 C 20.175781 26.421875 19.777344 27.144531 19.066406 26.984375 C 18.714844 26.90625 18.46875 26.746094 18.371094 26.53125 C 18.308594 26.398438 18.316406 26.25 18.386719 26.117188 C 18.441406 26.019531 18.511719 25.957031 18.601562 25.9375 C 18.8125 25.882812 19.09375 26.035156 19.183594 26.097656 C 19.246094 26.136719 19.328125 26.121094 19.371094 26.0625 C 19.410156 26 19.394531 25.917969 19.335938 25.878906 C 19.320312 25.867188 18.910156 25.585938 18.542969 25.675781 C 18.375 25.71875 18.242188 25.824219 18.152344 25.992188 C 18.042969 26.199219 18.03125 26.429688 18.128906 26.644531 C 18.261719 26.933594 18.570312 27.148438 19.007812 27.242188 C 19.390625 27.328125 19.75 27.222656 20.046875 26.9375 C 20.273438 26.722656 20.453125 26.414062 20.542969 26.089844 C 20.613281 25.839844 20.574219 25.414062 20.328125 25.066406 C 20.179688 24.855469 19.898438 24.597656 19.414062 24.5625 C 19.101562 24.542969 18.746094 24.65625 18.371094 24.773438 C 17.847656 24.9375 17.25 25.128906 16.625 25.011719 C 15.464844 24.804688 13.621094 23.914062 13.605469 23.90625 C 13.539062 23.875 13.460938 23.902344 13.429688 23.964844 C 13.394531 24.027344 13.417969 24.105469 13.480469 24.140625 C 13.488281 24.144531 14.394531 24.667969 14.898438 25.667969 C 15.066406 26.003906 15.125 26.34375 15.183594 26.667969 C 15.300781 27.308594 15.421875 27.96875 16.355469 28.566406 C 16.386719 28.585938 16.417969 28.605469 16.449219 28.625 C 17.230469 29.089844 17.949219 29.183594 18.417969 29.175781 C 18.8125 29.171875 19.097656 29.097656 19.210938 29.0625 C 19.394531 29.140625 20.128906 29.464844 20.492188 29.886719 C 20.703125 30.132812 20.855469 30.378906 21 30.617188 C 21.148438 30.859375 21.289062 31.09375 21.480469 31.289062 C 21.867188 31.6875 22.222656 31.761719 22.238281 31.765625 C 22.25 31.769531 22.265625 31.769531 22.277344 31.765625 C 22.21875 32.0625 22.21875 32.339844 22.277344 32.597656 C 22.378906 33.039062 22.660156 33.402344 23.085938 33.660156 C 23.398438 33.847656 23.730469 33.894531 24.035156 33.796875 C 24.445312 33.667969 24.726562 33.320312 24.855469 33.035156 C 25.011719 32.691406 24.972656 32.179688 24.761719 31.84375 C 24.59375 31.582031 24.347656 31.4375 24.046875 31.433594 C 23.4375 31.421875 23.199219 32.320312 23.191406 32.359375 C 23.171875 32.429688 23.214844 32.503906 23.285156 32.519531 C 23.355469 32.539062 23.429688 32.496094 23.449219 32.425781 C 23.449219 32.417969 23.648438 31.691406 24.039062 31.699219 C 24.25 31.703125 24.417969 31.800781 24.535156 31.984375 C 24.71875 32.277344 24.722656 32.691406 24.617188 32.925781 C 24.515625 33.148438 24.28125 33.441406 23.957031 33.542969 C 23.722656 33.617188 23.472656 33.582031 23.222656 33.429688 C 22.433594 32.957031 22.28125 32.128906 22.792969 31.097656 C 23.039062 30.597656 23.445312 30.289062 23.933594 30.226562 C 24.441406 30.160156 24.957031 30.367188 25.320312 30.785156 C 25.792969 31.332031 25.996094 32.070312 26.207031 32.855469 C 26.390625 33.523438 26.582031 34.214844 26.957031 34.792969 C 27.273438 35.28125 27.628906 35.539062 27.925781 35.675781 C 27.308594 35.761719 26.429688 35.871094 25.480469 35.933594 Z M 25.480469 35.933594 " fill-opacity="1" fill-rule="nonzero"/></g></g></g></g><g clip-path="url(#90d7866386)"><g clip-path="url(#f57158ca5e)"><g clip-path="url(#ad617d3a21)"><path fill="#5271ff" d="M 24.109375 16.359375 C 24.109375 16.359375 24.4375 16.40625 24.816406 16.753906 C 25.195312 17.101562 25.410156 17.601562 25.878906 18.078125 C 26.347656 18.558594 27.292969 18.867188 27.292969 18.867188 C 27.292969 18.867188 26.1875 19.332031 25.21875 18.964844 C 24.382812 18.648438 23.464844 17.632812 23.464844 17.632812 C 23.464844 17.632812 22.398438 20.6875 23.40625 22.890625 C 24.3125 24.863281 25.332031 25.515625 26.277344 25.824219 C 27.222656 26.132812 27.804688 25.773438 28.359375 26 C 28.914062 26.230469 28.75 27.554688 30.378906 27.808594 C 32.007812 28.0625 32.035156 26.6875 32.574219 26.605469 C 33.109375 26.523438 33.59375 27.121094 34.625 26.929688 C 35.65625 26.742188 35.679688 26.210938 36.769531 25.972656 C 37.855469 25.734375 39.339844 26.152344 39.339844 26.152344 C 39.339844 26.152344 38.171875 25.800781 37.878906 24.957031 C 37.585938 24.113281 37.84375 22.867188 37.34375 22.152344 C 36.84375 21.433594 35.300781 21.804688 34.835938 21.027344 C 34.371094 20.25 34.78125 19.117188 33.863281 18.222656 C 32.945312 17.328125 30.632812 18.058594 29.433594 17.171875 C 28.238281 16.289062 28.101562 13.648438 25.734375 12.46875 C 23.367188 11.285156 17.34375 12.753906 17.34375 12.753906 C 17.34375 12.753906 18.320312 12.425781 19.171875 13.582031 C 20.027344 14.738281 20.082031 16.46875 21.046875 17.457031 C 21.863281 18.292969 23.230469 18.183594 23.742188 16.972656 C 24.253906 15.757812 23.898438 14.933594 23.117188 14.523438 C 22.335938 14.117188 21.765625 14.699219 21.585938 15.171875 C 21.40625 15.640625 21.640625 16.554688 22.355469 16.527344 C 22.859375 16.507812 23.023438 15.671875 23.023438 15.671875 " fill-opacity="1" fill-rule="nonzero"/></g></g></g><g clip-path="url(#7bd69044e6)"><g clip-path="url(#b0c19099d4)"><g clip-path="url(#a4c9b81ee0)"><path fill="#ffffff" d="M 17.21875 12.789062 C 17.238281 12.859375 17.308594 12.898438 17.375 12.882812 C 17.378906 12.882812 17.410156 12.875 17.46875 12.859375 C 17.5625 12.84375 17.726562 12.828125 17.929688 12.867188 C 18.355469 12.945312 18.738281 13.214844 19.066406 13.660156 C 19.449219 14.175781 19.671875 14.828125 19.886719 15.460938 C 20.144531 16.214844 20.410156 16.996094 20.953125 17.550781 C 21.398438 18.007812 22.011719 18.210938 22.59375 18.101562 C 22.84375 18.054688 23.070312 17.953125 23.273438 17.800781 C 23.183594 18.101562 23.027344 18.691406 22.929688 19.417969 C 22.84375 20.03125 22.824219 20.613281 22.859375 21.148438 C 22.90625 21.824219 23.050781 22.425781 23.289062 22.945312 C 23.714844 23.871094 24.1875 24.570312 24.738281 25.078125 C 25.175781 25.480469 25.652344 25.757812 26.238281 25.949219 C 26.773438 26.125 27.210938 26.09375 27.558594 26.066406 C 27.839844 26.046875 28.085938 26.03125 28.308594 26.125 C 28.457031 26.183594 28.550781 26.375 28.667969 26.613281 C 28.90625 27.097656 29.234375 27.761719 30.359375 27.9375 C 30.867188 28.015625 31.277344 27.953125 31.613281 27.742188 C 31.902344 27.5625 32.082031 27.304688 32.226562 27.097656 C 32.359375 26.90625 32.464844 26.753906 32.59375 26.734375 C 32.78125 26.707031 32.96875 26.777344 33.207031 26.871094 C 33.5625 27.007812 34.007812 27.179688 34.648438 27.058594 C 35.195312 26.960938 35.480469 26.765625 35.757812 26.574219 C 36.027344 26.390625 36.28125 26.214844 36.796875 26.101562 C 37.839844 25.871094 39.289062 26.273438 39.304688 26.277344 C 39.375 26.296875 39.445312 26.257812 39.464844 26.1875 C 39.484375 26.117188 39.445312 26.046875 39.378906 26.023438 C 39.367188 26.019531 38.269531 25.683594 38.003906 24.914062 C 37.886719 24.574219 37.859375 24.148438 37.835938 23.738281 C 37.800781 23.140625 37.761719 22.519531 37.453125 22.074219 C 37.175781 21.683594 36.648438 21.585938 36.140625 21.488281 C 35.636719 21.394531 35.15625 21.308594 34.949219 20.957031 C 34.777344 20.667969 34.730469 20.3125 34.6875 19.933594 C 34.617188 19.351562 34.535156 18.695312 33.957031 18.128906 C 33.457031 17.644531 32.625 17.605469 31.742188 17.5625 C 30.921875 17.523438 30.074219 17.484375 29.511719 17.066406 C 29.066406 16.738281 28.769531 16.136719 28.429688 15.441406 C 28.167969 14.914062 27.871094 14.316406 27.464844 13.773438 C 27.042969 13.203125 26.554688 12.769531 25.976562 12.449219 C 25.917969 12.414062 25.855469 12.382812 25.792969 12.351562 C 25.234375 12.070312 24.441406 11.914062 23.429688 11.882812 C 22.628906 11.855469 21.6875 11.910156 20.636719 12.039062 C 19.117188 12.222656 17.789062 12.515625 17.417969 12.601562 C 17.347656 12.613281 17.308594 12.628906 17.304688 12.628906 C 17.238281 12.652344 17.199219 12.722656 17.21875 12.789062 Z M 23.550781 17.535156 C 23.675781 17.390625 23.78125 17.21875 23.863281 17.023438 C 23.945312 16.832031 24.003906 16.652344 24.046875 16.472656 C 24.058594 16.480469 24.074219 16.488281 24.089844 16.488281 C 24.09375 16.488281 24.390625 16.539062 24.730469 16.851562 C 24.910156 17.015625 25.054688 17.222656 25.207031 17.445312 C 25.363281 17.667969 25.542969 17.925781 25.785156 18.171875 C 25.949219 18.34375 26.171875 18.492188 26.390625 18.613281 C 26.570312 18.714844 26.75 18.796875 26.898438 18.855469 C 26.507812 18.960938 25.855469 19.066406 25.265625 18.84375 C 24.46875 18.542969 23.570312 17.554688 23.5625 17.546875 C 23.558594 17.542969 23.554688 17.539062 23.550781 17.535156 Z M 20.671875 12.296875 C 23 12.015625 24.730469 12.113281 25.675781 12.585938 C 27.066406 13.28125 27.664062 14.492188 28.191406 15.558594 C 28.550781 16.285156 28.859375 16.910156 29.355469 17.277344 C 29.421875 17.328125 29.492188 17.371094 29.566406 17.414062 C 30.171875 17.75 30.964844 17.789062 31.730469 17.824219 C 32.5625 17.863281 33.34375 17.902344 33.773438 18.316406 C 34.285156 18.816406 34.359375 19.402344 34.425781 19.964844 C 34.476562 20.371094 34.519531 20.753906 34.722656 21.09375 C 34.992188 21.542969 35.550781 21.648438 36.09375 21.75 C 36.570312 21.835938 37.023438 21.921875 37.234375 22.226562 C 37.503906 22.609375 37.539062 23.191406 37.574219 23.753906 C 37.597656 24.183594 37.625 24.625 37.753906 25 C 37.878906 25.359375 38.144531 25.632812 38.417969 25.832031 C 37.910156 25.761719 37.28125 25.722656 36.738281 25.84375 C 36.175781 25.96875 35.886719 26.167969 35.605469 26.359375 C 35.34375 26.539062 35.09375 26.710938 34.601562 26.800781 C 34.03125 26.90625 33.644531 26.757812 33.300781 26.625 C 33.046875 26.527344 32.808594 26.4375 32.554688 26.476562 C 32.316406 26.511719 32.167969 26.722656 32.011719 26.945312 C 31.722656 27.363281 31.394531 27.832031 30.398438 27.675781 C 29.410156 27.523438 29.128906 26.953125 28.90625 26.496094 C 28.769531 26.21875 28.648438 25.980469 28.410156 25.878906 C 28.125 25.765625 27.839844 25.785156 27.539062 25.804688 C 27.195312 25.832031 26.808594 25.859375 26.320312 25.699219 C 25.507812 25.433594 24.460938 24.871094 23.527344 22.835938 C 23.019531 21.726562 23.0625 20.386719 23.1875 19.460938 C 23.28125 18.757812 23.4375 18.179688 23.523438 17.886719 C 23.824219 18.191406 24.515625 18.839844 25.171875 19.089844 C 26.179688 19.46875 27.296875 19.007812 27.34375 18.988281 C 27.347656 18.984375 27.636719 18.863281 28.097656 18.832031 C 28.523438 18.804688 29.183594 18.851562 29.925781 19.238281 C 30.867188 19.730469 31.003906 20.285156 31.160156 20.929688 C 31.242188 21.265625 31.328125 21.613281 31.535156 21.96875 C 31.757812 22.351562 32.03125 22.660156 32.292969 22.898438 C 31.640625 22.667969 30.78125 22.398438 30.125 22.316406 C 29.433594 22.234375 28.824219 22.464844 28.285156 22.667969 C 27.929688 22.800781 27.621094 22.917969 27.363281 22.914062 C 26.980469 22.910156 26.753906 22.726562 26.628906 22.570312 C 26.429688 22.316406 26.363281 21.988281 26.40625 21.789062 C 26.492188 21.386719 26.84375 20.652344 27.558594 20.769531 C 27.910156 20.828125 28.164062 20.972656 28.273438 21.175781 C 28.339844 21.308594 28.34375 21.453125 28.28125 21.585938 C 28.234375 21.6875 28.167969 21.753906 28.078125 21.78125 C 27.875 21.84375 27.585938 21.710938 27.492188 21.652344 C 27.429688 21.617188 27.351562 21.636719 27.3125 21.699219 C 27.273438 21.757812 27.292969 21.839844 27.355469 21.878906 C 27.375 21.886719 27.792969 22.140625 28.152344 22.03125 C 28.316406 21.980469 28.441406 21.871094 28.519531 21.699219 C 28.617188 21.488281 28.613281 21.257812 28.503906 21.054688 C 28.355469 20.773438 28.035156 20.582031 27.601562 20.511719 C 27.21875 20.449219 26.867188 20.574219 26.589844 20.871094 C 26.378906 21.09375 26.21875 21.410156 26.148438 21.734375 C 26.097656 21.984375 26.160156 22.402344 26.425781 22.734375 C 26.582031 22.933594 26.875 23.171875 27.359375 23.179688 C 27.667969 23.183594 28.011719 23.050781 28.378906 22.914062 C 28.886719 22.71875 29.464844 22.5 30.09375 22.578125 C 31.25 22.722656 33.128906 23.496094 33.148438 23.503906 C 33.210938 23.53125 33.289062 23.5 33.316406 23.4375 C 33.34375 23.371094 33.316406 23.296875 33.253906 23.265625 C 33.246094 23.261719 32.316406 22.792969 31.761719 21.835938 C 31.574219 21.511719 31.492188 21.183594 31.414062 20.867188 C 31.261719 20.242188 31.105469 19.59375 30.144531 19.058594 C 30.113281 19.042969 30.078125 19.023438 30.046875 19.007812 C 29.246094 18.589844 28.527344 18.539062 28.066406 18.570312 C 27.675781 18.597656 27.398438 18.6875 27.289062 18.726562 C 27.101562 18.660156 26.355469 18.378906 25.972656 17.988281 C 25.746094 17.757812 25.582031 17.519531 25.421875 17.292969 C 25.261719 17.058594 25.109375 16.839844 24.90625 16.65625 C 24.503906 16.285156 24.144531 16.230469 24.128906 16.230469 C 24.117188 16.226562 24.105469 16.226562 24.09375 16.230469 C 24.132812 15.933594 24.117188 15.660156 24.039062 15.40625 C 23.914062 14.980469 23.613281 14.636719 23.175781 14.40625 C 22.855469 14.238281 22.527344 14.210938 22.230469 14.324219 C 21.832031 14.472656 21.574219 14.835938 21.460938 15.121094 C 21.328125 15.46875 21.402344 15.972656 21.628906 16.292969 C 21.808594 16.542969 22.0625 16.667969 22.359375 16.65625 C 22.960938 16.632812 23.144531 15.734375 23.152344 15.695312 C 23.164062 15.625 23.117188 15.554688 23.046875 15.542969 C 22.976562 15.527344 22.90625 15.574219 22.894531 15.644531 C 22.890625 15.652344 22.738281 16.378906 22.351562 16.394531 C 22.140625 16.402344 21.972656 16.316406 21.84375 16.140625 C 21.644531 15.859375 21.617188 15.453125 21.707031 15.21875 C 21.792969 14.992188 22.007812 14.6875 22.320312 14.570312 C 22.550781 14.480469 22.796875 14.507812 23.054688 14.640625 C 23.863281 15.0625 24.0625 15.871094 23.621094 16.921875 C 23.410156 17.425781 23.027344 17.753906 22.546875 17.84375 C 22.046875 17.9375 21.523438 17.757812 21.140625 17.367188 C 20.640625 16.855469 20.394531 16.136719 20.136719 15.375 C 19.914062 14.726562 19.683594 14.054688 19.277344 13.503906 C 18.933594 13.039062 18.570312 12.804688 18.265625 12.6875 C 18.871094 12.566406 19.734375 12.410156 20.671875 12.296875 Z M 20.671875 12.296875 " fill-opacity="1" fill-rule="nonzero"/></g></g></g></svg>