<svg xmlns="http://www.w3.org/2000/svg" xmlns:xlink="http://www.w3.org/1999/xlink" width="360" zoomAndPan="magnify" viewBox="0 0 270 237.75" height="317" preserveAspectRatio="xMidYMid meet" version="1.0"><defs><clipPath id="a75328a6ed"><path d="M 7.128906 55 L 127 55 L 127 144 L 7.128906 144 Z M 7.128906 55 " clip-rule="nonzero"/></clipPath><clipPath id="d5470981af"><path d="M 7.128906 55 L 127 55 L 127 68 L 7.128906 68 Z M 7.128906 55 " clip-rule="nonzero"/></clipPath><clipPath id="b334f2cd1d"><path d="M 183 106 L 262.609375 106 L 262.609375 166 L 183 166 Z M 183 106 " clip-rule="nonzero"/></clipPath><clipPath id="76ab445634"><path d="M 183 106 L 262.609375 106 L 262.609375 115 L 183 115 Z M 183 106 " clip-rule="nonzero"/></clipPath><clipPath id="18a40a7326"><path d="M 99 24.824219 L 152 24.824219 L 152 99 L 99 99 Z M 99 24.824219 " clip-rule="nonzero"/></clipPath><clipPath id="3073c6441d"><path d="M 128 186 L 157 186 L 157 212.875 L 128 212.875 Z M 128 186 " clip-rule="nonzero"/></clipPath></defs><g clip-path="url(#a75328a6ed)"><path fill="#f5faf4" d="M 126.027344 61.554688 L 126.027344 137.140625 C 126.027344 140.53125 123.28125 143.285156 119.894531 143.285156 L 13.261719 143.285156 C 9.871094 143.285156 7.128906 140.53125 7.128906 137.140625 L 7.128906 61.554688 C 7.128906 58.160156 9.871094 55.410156 13.261719 55.410156 L 119.894531 55.410156 C 123.28125 55.410156 126.027344 58.160156 126.027344 61.554688 Z M 126.027344 61.554688 " fill-opacity="1" fill-rule="nonzero"/></g><g clip-path="url(#d5470981af)"><path fill="#fedc00" d="M 126.027344 61.554688 L 126.027344 67.433594 L 7.128906 67.433594 L 7.128906 61.554688 C 7.128906 58.160156 9.871094 55.410156 13.261719 55.410156 L 119.894531 55.410156 C 123.28125 55.410156 126.027344 58.160156 126.027344 61.554688 Z M 126.027344 61.554688 " fill-opacity="1" fill-rule="nonzero"/></g><path fill="#ce539e" d="M 17.671875 61.410156 C 17.671875 61.714844 17.613281 62.007812 17.496094 62.289062 C 17.378906 62.574219 17.214844 62.820312 17 63.039062 C 16.78125 63.253906 16.535156 63.421875 16.253906 63.539062 C 15.96875 63.652344 15.675781 63.710938 15.371094 63.710938 C 15.066406 63.710938 14.773438 63.652344 14.492188 63.539062 C 14.210938 63.421875 13.960938 63.253906 13.746094 63.039062 C 13.53125 62.820312 13.363281 62.574219 13.246094 62.289062 C 13.132812 62.007812 13.074219 61.714844 13.074219 61.410156 C 13.074219 61.101562 13.132812 60.808594 13.246094 60.527344 C 13.363281 60.246094 13.53125 59.996094 13.746094 59.78125 C 13.960938 59.5625 14.210938 59.398438 14.492188 59.28125 C 14.773438 59.164062 15.066406 59.105469 15.371094 59.105469 C 15.675781 59.105469 15.96875 59.164062 16.253906 59.28125 C 16.535156 59.398438 16.78125 59.5625 17 59.78125 C 17.214844 59.996094 17.378906 60.246094 17.496094 60.527344 C 17.613281 60.808594 17.671875 61.101562 17.671875 61.410156 Z M 17.671875 61.410156 " fill-opacity="1" fill-rule="nonzero"/><path fill="#ce539e" d="M 26.859375 61.410156 C 26.859375 61.714844 26.800781 62.007812 26.683594 62.289062 C 26.566406 62.574219 26.402344 62.820312 26.183594 63.039062 C 25.96875 63.253906 25.722656 63.421875 25.4375 63.539062 C 25.15625 63.652344 24.863281 63.710938 24.558594 63.710938 C 24.253906 63.710938 23.960938 63.652344 23.679688 63.539062 C 23.398438 63.421875 23.148438 63.253906 22.933594 63.039062 C 22.71875 62.820312 22.550781 62.574219 22.433594 62.289062 C 22.316406 62.007812 22.261719 61.714844 22.261719 61.410156 C 22.261719 61.101562 22.316406 60.808594 22.433594 60.527344 C 22.550781 60.246094 22.71875 59.996094 22.933594 59.78125 C 23.148438 59.5625 23.398438 59.398438 23.679688 59.28125 C 23.960938 59.164062 24.253906 59.105469 24.558594 59.105469 C 24.863281 59.105469 25.15625 59.164062 25.4375 59.28125 C 25.722656 59.398438 25.96875 59.5625 26.183594 59.78125 C 26.402344 59.996094 26.566406 60.246094 26.683594 60.527344 C 26.800781 60.808594 26.859375 61.101562 26.859375 61.410156 Z M 26.859375 61.410156 " fill-opacity="1" fill-rule="nonzero"/><path fill="#ce539e" d="M 36.046875 61.410156 C 36.046875 61.714844 35.988281 62.007812 35.871094 62.289062 C 35.753906 62.574219 35.585938 62.820312 35.371094 63.039062 C 35.15625 63.253906 34.90625 63.421875 34.625 63.539062 C 34.34375 63.652344 34.050781 63.710938 33.746094 63.710938 C 33.441406 63.710938 33.148438 63.652344 32.867188 63.539062 C 32.585938 63.421875 32.335938 63.253906 32.121094 63.039062 C 31.90625 62.820312 31.738281 62.574219 31.621094 62.289062 C 31.503906 62.007812 31.445312 61.714844 31.445312 61.410156 C 31.445312 61.101562 31.503906 60.808594 31.621094 60.527344 C 31.738281 60.246094 31.90625 59.996094 32.121094 59.78125 C 32.335938 59.5625 32.585938 59.398438 32.867188 59.28125 C 33.148438 59.164062 33.441406 59.105469 33.746094 59.105469 C 34.050781 59.105469 34.34375 59.164062 34.625 59.28125 C 34.90625 59.398438 35.15625 59.5625 35.371094 59.78125 C 35.585938 59.996094 35.753906 60.246094 35.871094 60.527344 C 35.988281 60.808594 36.046875 61.101562 36.046875 61.410156 Z M 36.046875 61.410156 " fill-opacity="1" fill-rule="nonzero"/><g clip-path="url(#b334f2cd1d)"><path fill="#f5faf4" d="M 262.613281 111.007812 L 262.613281 161.5 C 262.613281 163.765625 260.777344 165.605469 258.515625 165.605469 L 187.28125 165.605469 C 185.019531 165.605469 183.1875 163.765625 183.1875 161.5 L 183.1875 111.007812 C 183.1875 108.742188 185.019531 106.902344 187.28125 106.902344 L 258.515625 106.902344 C 260.777344 106.902344 262.613281 108.742188 262.613281 111.007812 Z M 262.613281 111.007812 " fill-opacity="1" fill-rule="nonzero"/></g><g clip-path="url(#76ab445634)"><path fill="#fedc00" d="M 262.613281 111.007812 L 262.613281 114.9375 L 183.1875 114.9375 L 183.1875 111.007812 C 183.1875 108.742188 185.019531 106.902344 187.28125 106.902344 L 258.515625 106.902344 C 260.777344 106.902344 262.613281 108.742188 262.613281 111.007812 Z M 262.613281 111.007812 " fill-opacity="1" fill-rule="nonzero"/></g><path fill="#ce539e" d="M 190.21875 111.625 C 190.21875 111.863281 190.171875 112.09375 190.082031 112.316406 C 189.988281 112.539062 189.859375 112.734375 189.6875 112.90625 C 189.519531 113.074219 189.324219 113.207031 189.101562 113.300781 C 188.878906 113.390625 188.648438 113.4375 188.410156 113.4375 C 188.167969 113.4375 187.9375 113.390625 187.714844 113.300781 C 187.496094 113.207031 187.300781 113.074219 187.128906 112.90625 C 186.960938 112.734375 186.828125 112.539062 186.738281 112.316406 C 186.644531 112.09375 186.597656 111.863281 186.597656 111.625 C 186.597656 111.382812 186.644531 111.152344 186.738281 110.929688 C 186.828125 110.707031 186.960938 110.511719 187.128906 110.339844 C 187.300781 110.171875 187.496094 110.039062 187.714844 109.949219 C 187.9375 109.855469 188.167969 109.808594 188.410156 109.808594 C 188.648438 109.808594 188.878906 109.855469 189.101562 109.949219 C 189.324219 110.039062 189.519531 110.171875 189.6875 110.339844 C 189.859375 110.511719 189.988281 110.707031 190.082031 110.929688 C 190.171875 111.152344 190.21875 111.382812 190.21875 111.625 Z M 190.21875 111.625 " fill-opacity="1" fill-rule="nonzero"/><path fill="#ce539e" d="M 197.449219 111.625 C 197.449219 111.863281 197.402344 112.09375 197.3125 112.316406 C 197.21875 112.539062 197.089844 112.734375 196.917969 112.90625 C 196.75 113.074219 196.554688 113.207031 196.332031 113.300781 C 196.109375 113.390625 195.878906 113.4375 195.640625 113.4375 C 195.398438 113.4375 195.167969 113.390625 194.945312 113.300781 C 194.726562 113.207031 194.527344 113.074219 194.359375 112.90625 C 194.191406 112.734375 194.058594 112.539062 193.96875 112.316406 C 193.875 112.09375 193.828125 111.863281 193.828125 111.625 C 193.828125 111.382812 193.875 111.152344 193.96875 110.929688 C 194.058594 110.707031 194.191406 110.511719 194.359375 110.339844 C 194.527344 110.171875 194.726562 110.039062 194.945312 109.949219 C 195.167969 109.855469 195.398438 109.808594 195.640625 109.808594 C 195.878906 109.808594 196.109375 109.855469 196.332031 109.949219 C 196.554688 110.039062 196.75 110.171875 196.917969 110.339844 C 197.089844 110.511719 197.21875 110.707031 197.3125 110.929688 C 197.402344 111.152344 197.449219 111.382812 197.449219 111.625 Z M 197.449219 111.625 " fill-opacity="1" fill-rule="nonzero"/><path fill="#ce539e" d="M 204.679688 111.625 C 204.679688 111.863281 204.632812 112.09375 204.542969 112.316406 C 204.449219 112.539062 204.320312 112.734375 204.148438 112.90625 C 203.980469 113.074219 203.785156 113.207031 203.5625 113.300781 C 203.339844 113.390625 203.109375 113.4375 202.871094 113.4375 C 202.628906 113.4375 202.398438 113.390625 202.175781 113.300781 C 201.953125 113.207031 201.757812 113.074219 201.589844 112.90625 C 201.417969 112.734375 201.289062 112.539062 201.195312 112.316406 C 201.105469 112.09375 201.058594 111.863281 201.058594 111.625 C 201.058594 111.382812 201.105469 111.152344 201.195312 110.929688 C 201.289062 110.707031 201.417969 110.511719 201.589844 110.339844 C 201.757812 110.171875 201.953125 110.039062 202.175781 109.949219 C 202.398438 109.855469 202.628906 109.808594 202.871094 109.808594 C 203.109375 109.808594 203.339844 109.855469 203.5625 109.949219 C 203.785156 110.039062 203.980469 110.171875 204.148438 110.339844 C 204.320312 110.511719 204.449219 110.707031 204.542969 110.929688 C 204.632812 111.152344 204.679688 111.382812 204.679688 111.625 Z M 204.679688 111.625 " fill-opacity="1" fill-rule="nonzero"/><path fill="#ce539e" d="M 241.765625 142.855469 C 240.464844 152.933594 231.808594 160.554688 221.671875 160.554688 C 210.554688 160.554688 201.410156 151.394531 201.410156 140.253906 C 201.410156 129.117188 210.554688 119.949219 221.671875 119.949219 C 227.824219 119.949219 233.652344 122.757812 237.492188 127.570312 L 237.21875 127.789062 L 221.671875 140.253906 L 241.40625 142.8125 Z M 241.765625 142.855469 " fill-opacity="1" fill-rule="nonzero"/><path fill="#fedc00" d="M 220.113281 116.347656 L 220.113281 138.753906 L 200.652344 127.714844 C 204.488281 120.925781 211.765625 116.347656 220.113281 116.347656 Z M 220.113281 116.347656 " fill-opacity="1" fill-rule="nonzero"/><path fill="#fedc00" d="M 245.144531 139.195312 C 245.144531 140.0625 245.09375 140.914062 244.984375 141.753906 L 225.25 139.195312 L 240.800781 126.730469 C 243.519531 130.148438 245.144531 134.480469 245.144531 139.195312 Z M 245.144531 139.195312 " fill-opacity="1" fill-rule="nonzero"/><path fill="#f5faf4" d="M 28.800781 90.550781 L 21.636719 90.550781 C 18.90625 90.550781 16.695312 88.335938 16.695312 85.597656 L 16.695312 78.421875 C 16.695312 75.6875 18.90625 73.46875 21.636719 73.46875 L 28.800781 73.46875 C 31.53125 73.46875 33.742188 75.6875 33.742188 78.421875 L 33.742188 85.597656 C 33.742188 88.335938 31.53125 90.550781 28.800781 90.550781 Z M 28.800781 90.550781 " fill-opacity="1" fill-rule="nonzero"/><path fill="#ce539e" d="M 88.65625 82.996094 L 40.945312 82.996094 C 39.679688 82.996094 38.644531 81.957031 38.644531 80.6875 C 38.644531 79.417969 39.679688 78.382812 40.945312 78.382812 L 88.65625 78.382812 C 89.921875 78.382812 90.957031 79.417969 90.957031 80.6875 C 90.957031 81.957031 89.921875 82.996094 88.65625 82.996094 Z M 88.65625 82.996094 " fill-opacity="1" fill-rule="nonzero"/><path fill="#ce539e" d="M 75.226562 89.492188 L 40.417969 89.492188 C 39.441406 89.492188 38.644531 88.691406 38.644531 87.714844 C 38.644531 86.738281 39.441406 85.9375 40.417969 85.9375 L 75.226562 85.9375 C 76.199219 85.9375 77 86.738281 77 87.714844 C 77 88.691406 76.199219 89.492188 75.226562 89.492188 Z M 75.226562 89.492188 " fill-opacity="1" fill-rule="nonzero"/><path fill="#000000" d="M 24.160156 86.402344 L 19.496094 81.730469 C 19.082031 81.3125 19.082031 80.636719 19.496094 80.222656 C 19.910156 79.804688 20.585938 79.804688 21.003906 80.222656 L 24.160156 83.386719 L 36.410156 71.113281 C 36.824219 70.695312 37.5 70.695312 37.914062 71.113281 C 38.328125 71.527344 38.328125 72.203125 37.914062 72.621094 Z M 24.160156 86.402344 " fill-opacity="1" fill-rule="nonzero"/><path fill="#f5faf4" d="M 36.972656 111.808594 L 31.15625 111.808594 C 28.941406 111.808594 27.144531 110.007812 27.144531 107.789062 L 27.144531 101.960938 C 27.144531 99.738281 28.941406 97.9375 31.15625 97.9375 L 36.972656 97.9375 C 39.191406 97.9375 40.988281 99.738281 40.988281 101.960938 L 40.988281 107.789062 C 40.988281 110.007812 39.191406 111.808594 36.972656 111.808594 Z M 36.972656 111.808594 " fill-opacity="1" fill-rule="nonzero"/><path fill="#ce539e" d="M 85.578125 105.675781 L 46.835938 105.675781 C 45.808594 105.675781 44.964844 104.832031 44.964844 103.800781 C 44.964844 102.769531 45.808594 101.925781 46.835938 101.925781 L 85.578125 101.925781 C 86.605469 101.925781 87.449219 102.769531 87.449219 103.800781 C 87.449219 104.832031 86.605469 105.675781 85.578125 105.675781 Z M 85.578125 105.675781 " fill-opacity="1" fill-rule="nonzero"/><path fill="#ce539e" d="M 74.671875 110.949219 L 46.40625 110.949219 C 45.613281 110.949219 44.964844 110.300781 44.964844 109.507812 C 44.964844 108.710938 45.613281 108.0625 46.40625 108.0625 L 74.671875 108.0625 C 75.464844 108.0625 76.113281 108.710938 76.113281 109.507812 C 76.113281 110.300781 75.464844 110.949219 74.671875 110.949219 Z M 74.671875 110.949219 " fill-opacity="1" fill-rule="nonzero"/><path fill="#000000" d="M 33.140625 109.457031 L 28.476562 104.785156 C 28.0625 104.367188 28.0625 103.695312 28.476562 103.277344 C 28.894531 102.859375 29.566406 102.859375 29.984375 103.277344 L 33.140625 106.441406 L 45.390625 94.167969 C 45.804688 93.75 46.480469 93.75 46.894531 94.167969 C 47.3125 94.585938 47.3125 95.261719 46.894531 95.675781 Z M 33.140625 109.457031 " fill-opacity="1" fill-rule="nonzero"/><path fill="#f5faf4" d="M 44.65625 134.375 L 38.839844 134.375 C 36.625 134.375 34.828125 132.574219 34.828125 130.355469 L 34.828125 124.527344 C 34.828125 122.304688 36.625 120.503906 38.839844 120.503906 L 44.65625 120.503906 C 46.875 120.503906 48.671875 122.304688 48.671875 124.527344 L 48.671875 130.355469 C 48.671875 132.574219 46.875 134.375 44.65625 134.375 Z M 44.65625 134.375 " fill-opacity="1" fill-rule="nonzero"/><path fill="#ce539e" d="M 93.261719 128.238281 L 54.519531 128.238281 C 53.492188 128.238281 52.652344 127.394531 52.652344 126.367188 C 52.652344 125.335938 53.492188 124.492188 54.519531 124.492188 L 93.261719 124.492188 C 94.289062 124.492188 95.132812 125.335938 95.132812 126.367188 C 95.132812 127.394531 94.289062 128.238281 93.261719 128.238281 Z M 93.261719 128.238281 " fill-opacity="1" fill-rule="nonzero"/><path fill="#ce539e" d="M 82.355469 133.515625 L 54.089844 133.515625 C 53.296875 133.515625 52.652344 132.867188 52.652344 132.070312 C 52.652344 131.277344 53.296875 130.628906 54.089844 130.628906 L 82.355469 130.628906 C 83.148438 130.628906 83.796875 131.277344 83.796875 132.070312 C 83.796875 132.867188 83.148438 133.515625 82.355469 133.515625 Z M 82.355469 133.515625 " fill-opacity="1" fill-rule="nonzero"/><path fill="#000000" d="M 40.824219 132.023438 L 36.160156 127.351562 C 35.746094 126.933594 35.746094 126.257812 36.160156 125.84375 C 36.578125 125.425781 37.25 125.425781 37.667969 125.84375 L 40.824219 129.007812 L 53.074219 116.734375 C 53.488281 116.316406 54.164062 116.316406 54.578125 116.734375 C 54.996094 117.148438 54.996094 117.824219 54.578125 118.242188 Z M 40.824219 132.023438 " fill-opacity="1" fill-rule="nonzero"/><path fill="#fedc00" d="M 108.976562 36.351562 L 155.03125 36.351562 L 155.03125 102.570312 L 108.976562 102.570312 Z M 108.976562 36.351562 " fill-opacity="1" fill-rule="nonzero"/><path fill="#000000" d="M 102.800781 91.078125 L 105.886719 91.078125 L 105.886719 94.910156 L 102.800781 94.910156 Z M 102.800781 91.078125 " fill-opacity="1" fill-rule="nonzero"/><g clip-path="url(#18a40a7326)"><path fill="#f5faf4" d="M 148.855469 32.519531 L 148.855469 28.6875 L 145.769531 28.6875 L 145.769531 24.855469 L 99.714844 24.855469 L 99.714844 91.074219 L 102.800781 91.074219 L 102.800781 94.90625 L 105.890625 94.90625 L 105.890625 98.738281 L 151.945312 98.738281 L 151.945312 32.519531 Z M 148.855469 32.519531 " fill-opacity="1" fill-rule="nonzero"/></g><path fill="#000000" d="M 151.941406 32.519531 L 151.941406 98.738281 L 105.886719 98.738281 L 105.886719 94.90625 L 148.859375 94.90625 L 148.859375 32.519531 Z M 151.941406 32.519531 " fill-opacity="0.3" fill-rule="nonzero"/><path fill="#000000" d="M 148.859375 28.6875 L 148.859375 94.90625 L 102.800781 94.90625 L 102.800781 91.078125 L 145.769531 91.078125 L 145.769531 28.6875 Z M 148.859375 28.6875 " fill-opacity="0.1" fill-rule="nonzero"/><path fill="#f5faf4" d="M 111.640625 39.941406 L 108.460938 39.941406 C 107.25 39.941406 106.269531 38.957031 106.269531 37.742188 L 106.269531 34.558594 C 106.269531 33.347656 107.25 32.363281 108.460938 32.363281 L 111.640625 32.363281 C 112.851562 32.363281 113.832031 33.347656 113.832031 34.558594 L 113.832031 37.742188 C 113.832031 38.957031 112.851562 39.941406 111.640625 39.941406 Z M 111.640625 39.941406 " fill-opacity="1" fill-rule="nonzero"/><path fill="#ce539e" d="M 138.195312 36.589844 L 117.027344 36.589844 C 116.464844 36.589844 116.007812 36.128906 116.007812 35.566406 C 116.007812 35.003906 116.464844 34.542969 117.027344 34.542969 L 138.195312 34.542969 C 138.753906 34.542969 139.214844 35.003906 139.214844 35.566406 C 139.214844 36.128906 138.753906 36.589844 138.195312 36.589844 Z M 138.195312 36.589844 " fill-opacity="1" fill-rule="nonzero"/><path fill="#ce539e" d="M 132.234375 39.472656 L 116.792969 39.472656 C 116.359375 39.472656 116.007812 39.117188 116.007812 38.683594 C 116.007812 38.25 116.359375 37.894531 116.792969 37.894531 L 132.234375 37.894531 C 132.667969 37.894531 133.023438 38.25 133.023438 38.683594 C 133.023438 39.117188 132.667969 39.472656 132.234375 39.472656 Z M 132.234375 39.472656 " fill-opacity="1" fill-rule="nonzero"/><path fill="#000000" d="M 109.582031 38.101562 L 107.511719 36.027344 C 107.328125 35.84375 107.328125 35.542969 107.511719 35.359375 C 107.695312 35.171875 107.996094 35.171875 108.179688 35.359375 L 109.582031 36.761719 L 115.015625 31.316406 C 115.199219 31.132812 115.496094 31.132812 115.683594 31.316406 C 115.867188 31.5 115.867188 31.800781 115.683594 31.984375 Z M 109.582031 38.101562 " fill-opacity="1" fill-rule="nonzero"/><path fill="#f5faf4" d="M 111.640625 50.882812 L 108.460938 50.882812 C 107.25 50.882812 106.269531 49.902344 106.269531 48.6875 L 106.269531 45.503906 C 106.269531 44.289062 107.25 43.304688 108.460938 43.304688 L 111.640625 43.304688 C 112.851562 43.304688 113.832031 44.289062 113.832031 45.503906 L 113.832031 48.6875 C 113.832031 49.902344 112.851562 50.882812 111.640625 50.882812 Z M 111.640625 50.882812 " fill-opacity="1" fill-rule="nonzero"/><path fill="#ce539e" d="M 138.195312 47.53125 L 117.027344 47.53125 C 116.464844 47.53125 116.007812 47.070312 116.007812 46.507812 C 116.007812 45.945312 116.464844 45.484375 117.027344 45.484375 L 138.195312 45.484375 C 138.753906 45.484375 139.214844 45.945312 139.214844 46.507812 C 139.214844 47.070312 138.753906 47.53125 138.195312 47.53125 Z M 138.195312 47.53125 " fill-opacity="1" fill-rule="nonzero"/><path fill="#ce539e" d="M 132.234375 50.414062 L 116.792969 50.414062 C 116.359375 50.414062 116.007812 50.058594 116.007812 49.625 C 116.007812 49.191406 116.359375 48.835938 116.792969 48.835938 L 132.234375 48.835938 C 132.667969 48.835938 133.023438 49.191406 133.023438 49.625 C 133.023438 50.058594 132.667969 50.414062 132.234375 50.414062 Z M 132.234375 50.414062 " fill-opacity="1" fill-rule="nonzero"/><path fill="#000000" d="M 109.582031 49.042969 L 107.511719 46.96875 C 107.328125 46.785156 107.328125 46.484375 107.511719 46.300781 C 107.695312 46.117188 107.996094 46.117188 108.179688 46.300781 L 109.582031 47.707031 L 115.015625 42.261719 C 115.199219 42.074219 115.496094 42.074219 115.683594 42.261719 C 115.867188 42.445312 115.867188 42.746094 115.683594 42.929688 Z M 109.582031 49.042969 " fill-opacity="1" fill-rule="nonzero"/><path fill="#f5faf4" d="M 111.640625 63.054688 L 108.460938 63.054688 C 107.25 63.054688 106.269531 62.070312 106.269531 60.859375 L 106.269531 57.675781 C 106.269531 56.460938 107.25 55.476562 108.460938 55.476562 L 111.640625 55.476562 C 112.851562 55.476562 113.832031 56.460938 113.832031 57.675781 L 113.832031 60.859375 C 113.832031 62.070312 112.851562 63.054688 111.640625 63.054688 Z M 111.640625 63.054688 " fill-opacity="1" fill-rule="nonzero"/><path fill="#fedc00" d="M 138.195312 59.703125 L 117.027344 59.703125 C 116.464844 59.703125 116.007812 59.242188 116.007812 58.679688 C 116.007812 58.117188 116.464844 57.65625 117.027344 57.65625 L 138.195312 57.65625 C 138.753906 57.65625 139.214844 58.117188 139.214844 58.679688 C 139.214844 59.242188 138.753906 59.703125 138.195312 59.703125 Z M 138.195312 59.703125 " fill-opacity="1" fill-rule="nonzero"/><path fill="#fedc00" d="M 132.234375 62.585938 L 116.792969 62.585938 C 116.359375 62.585938 116.007812 62.230469 116.007812 61.796875 C 116.007812 61.363281 116.359375 61.007812 116.792969 61.007812 L 132.234375 61.007812 C 132.667969 61.007812 133.023438 61.363281 133.023438 61.796875 C 133.023438 62.230469 132.667969 62.585938 132.234375 62.585938 Z M 132.234375 62.585938 " fill-opacity="1" fill-rule="nonzero"/><path fill="#f5faf4" d="M 111.640625 74.648438 L 108.460938 74.648438 C 107.25 74.648438 106.269531 73.664062 106.269531 72.449219 L 106.269531 69.265625 C 106.269531 68.054688 107.25 67.070312 108.460938 67.070312 L 111.640625 67.070312 C 112.851562 67.070312 113.832031 68.054688 113.832031 69.265625 L 113.832031 72.449219 C 113.832031 73.664062 112.851562 74.648438 111.640625 74.648438 Z M 111.640625 74.648438 " fill-opacity="1" fill-rule="nonzero"/><path fill="#fedc00" d="M 138.195312 71.296875 L 117.027344 71.296875 C 116.464844 71.296875 116.007812 70.835938 116.007812 70.273438 C 116.007812 69.710938 116.464844 69.25 117.027344 69.25 L 138.195312 69.25 C 138.753906 69.25 139.214844 69.710938 139.214844 70.273438 C 139.214844 70.835938 138.753906 71.296875 138.195312 71.296875 Z M 138.195312 71.296875 " fill-opacity="1" fill-rule="nonzero"/><path fill="#fedc00" d="M 132.234375 74.179688 L 116.792969 74.179688 C 116.359375 74.179688 116.007812 73.824219 116.007812 73.390625 C 116.007812 72.957031 116.359375 72.601562 116.792969 72.601562 L 132.234375 72.601562 C 132.667969 72.601562 133.023438 72.957031 133.023438 73.390625 C 133.023438 73.824219 132.667969 74.179688 132.234375 74.179688 Z M 132.234375 74.179688 " fill-opacity="1" fill-rule="nonzero"/><path fill="#fedc00" d="M 112.71875 59.265625 C 112.71875 59.621094 112.652344 59.960938 112.515625 60.289062 C 112.382812 60.617188 112.1875 60.90625 111.9375 61.15625 C 111.6875 61.40625 111.398438 61.601562 111.074219 61.738281 C 110.746094 61.871094 110.40625 61.941406 110.050781 61.941406 C 109.695312 61.941406 109.355469 61.871094 109.03125 61.738281 C 108.703125 61.601562 108.414062 61.40625 108.164062 61.15625 C 107.914062 60.90625 107.722656 60.617188 107.585938 60.289062 C 107.449219 59.960938 107.382812 59.621094 107.382812 59.265625 C 107.382812 58.910156 107.449219 58.570312 107.585938 58.242188 C 107.722656 57.914062 107.914062 57.625 108.164062 57.375 C 108.414062 57.125 108.703125 56.929688 109.03125 56.796875 C 109.355469 56.660156 109.695312 56.59375 110.050781 56.59375 C 110.40625 56.59375 110.746094 56.660156 111.074219 56.796875 C 111.398438 56.929688 111.6875 57.125 111.9375 57.375 C 112.1875 57.625 112.382812 57.914062 112.515625 58.242188 C 112.652344 58.570312 112.71875 58.910156 112.71875 59.265625 Z M 112.71875 59.265625 " fill-opacity="1" fill-rule="nonzero"/><path fill="#fedc00" d="M 112.71875 70.859375 C 112.71875 71.214844 112.652344 71.554688 112.515625 71.882812 C 112.382812 72.210938 112.1875 72.5 111.9375 72.75 C 111.6875 73 111.398438 73.195312 111.074219 73.328125 C 110.746094 73.464844 110.40625 73.53125 110.050781 73.53125 C 109.695312 73.53125 109.355469 73.464844 109.03125 73.328125 C 108.703125 73.195312 108.414062 73 108.164062 72.75 C 107.914062 72.5 107.722656 72.210938 107.585938 71.882812 C 107.449219 71.554688 107.382812 71.214844 107.382812 70.859375 C 107.382812 70.503906 107.449219 70.164062 107.585938 69.835938 C 107.722656 69.507812 107.914062 69.21875 108.164062 68.96875 C 108.414062 68.71875 108.703125 68.523438 109.03125 68.386719 C 109.355469 68.253906 109.695312 68.183594 110.050781 68.183594 C 110.40625 68.183594 110.746094 68.253906 111.074219 68.386719 C 111.398438 68.523438 111.6875 68.71875 111.9375 68.96875 C 112.1875 69.21875 112.382812 69.507812 112.515625 69.835938 C 112.652344 70.164062 112.71875 70.503906 112.71875 70.859375 Z M 112.71875 70.859375 " fill-opacity="1" fill-rule="nonzero"/><path fill="#f5faf4" d="M 244.289062 44.304688 L 244.289062 96.238281 C 244.289062 98.570312 242.402344 100.460938 240.074219 100.460938 L 166.804688 100.460938 C 164.476562 100.460938 162.589844 98.570312 162.589844 96.238281 L 162.589844 44.304688 C 162.589844 41.972656 164.476562 40.082031 166.804688 40.082031 L 240.074219 40.082031 C 242.402344 40.082031 244.289062 41.972656 244.289062 44.304688 Z M 244.289062 44.304688 " fill-opacity="1" fill-rule="nonzero"/><path fill="#fedc00" d="M 244.289062 44.304688 L 244.289062 48.34375 L 162.589844 48.34375 L 162.589844 44.304688 C 162.589844 41.972656 164.476562 40.082031 166.804688 40.082031 L 240.074219 40.082031 C 242.402344 40.082031 244.289062 41.972656 244.289062 44.304688 Z M 244.289062 44.304688 " fill-opacity="1" fill-rule="nonzero"/><path fill="#ce539e" d="M 169.835938 44.203125 C 169.835938 44.414062 169.796875 44.617188 169.714844 44.808594 C 169.636719 45.003906 169.519531 45.175781 169.375 45.324219 C 169.226562 45.472656 169.054688 45.585938 168.859375 45.667969 C 168.667969 45.746094 168.464844 45.789062 168.257812 45.789062 C 168.046875 45.789062 167.84375 45.746094 167.652344 45.667969 C 167.457031 45.585938 167.285156 45.472656 167.136719 45.324219 C 166.992188 45.175781 166.875 45.003906 166.796875 44.808594 C 166.714844 44.617188 166.675781 44.414062 166.675781 44.203125 C 166.675781 43.992188 166.714844 43.792969 166.796875 43.597656 C 166.875 43.402344 166.992188 43.234375 167.136719 43.085938 C 167.285156 42.9375 167.457031 42.820312 167.652344 42.742188 C 167.84375 42.660156 168.046875 42.621094 168.257812 42.621094 C 168.464844 42.621094 168.667969 42.660156 168.859375 42.742188 C 169.054688 42.820312 169.226562 42.9375 169.375 43.085938 C 169.519531 43.234375 169.636719 43.402344 169.714844 43.597656 C 169.796875 43.792969 169.835938 43.992188 169.835938 44.203125 Z M 169.835938 44.203125 " fill-opacity="1" fill-rule="nonzero"/><path fill="#ce539e" d="M 176.148438 44.203125 C 176.148438 44.414062 176.109375 44.617188 176.027344 44.808594 C 175.949219 45.003906 175.832031 45.175781 175.6875 45.324219 C 175.539062 45.472656 175.367188 45.585938 175.171875 45.667969 C 174.980469 45.746094 174.777344 45.789062 174.570312 45.789062 C 174.359375 45.789062 174.15625 45.746094 173.964844 45.667969 C 173.769531 45.585938 173.597656 45.472656 173.449219 45.324219 C 173.304688 45.175781 173.1875 45.003906 173.109375 44.808594 C 173.027344 44.617188 172.988281 44.414062 172.988281 44.203125 C 172.988281 43.992188 173.027344 43.792969 173.109375 43.597656 C 173.1875 43.402344 173.304688 43.234375 173.449219 43.085938 C 173.597656 42.9375 173.769531 42.820312 173.964844 42.742188 C 174.15625 42.660156 174.359375 42.621094 174.570312 42.621094 C 174.777344 42.621094 174.980469 42.660156 175.171875 42.742188 C 175.367188 42.820312 175.539062 42.9375 175.6875 43.085938 C 175.832031 43.234375 175.949219 43.402344 176.027344 43.597656 C 176.109375 43.792969 176.148438 43.992188 176.148438 44.203125 Z M 176.148438 44.203125 " fill-opacity="1" fill-rule="nonzero"/><path fill="#ce539e" d="M 182.460938 44.203125 C 182.460938 44.414062 182.421875 44.617188 182.339844 44.808594 C 182.261719 45.003906 182.144531 45.175781 182 45.324219 C 181.851562 45.472656 181.679688 45.585938 181.484375 45.667969 C 181.292969 45.746094 181.089844 45.789062 180.882812 45.789062 C 180.671875 45.789062 180.46875 45.746094 180.277344 45.667969 C 180.082031 45.585938 179.910156 45.472656 179.761719 45.324219 C 179.617188 45.175781 179.5 45.003906 179.421875 44.808594 C 179.339844 44.617188 179.300781 44.414062 179.300781 44.203125 C 179.300781 43.992188 179.339844 43.792969 179.421875 43.597656 C 179.5 43.402344 179.617188 43.234375 179.761719 43.085938 C 179.910156 42.9375 180.082031 42.820312 180.277344 42.742188 C 180.46875 42.660156 180.671875 42.621094 180.882812 42.621094 C 181.089844 42.621094 181.292969 42.660156 181.484375 42.742188 C 181.679688 42.820312 181.851562 42.9375 182 43.085938 C 182.144531 43.234375 182.261719 43.402344 182.339844 43.597656 C 182.421875 43.792969 182.460938 43.992188 182.460938 44.203125 Z M 182.460938 44.203125 " fill-opacity="1" fill-rule="nonzero"/><path fill="#ce539e" d="M 226.230469 64.3125 L 226.359375 87.726562 C 226.363281 87.863281 226.355469 87.996094 226.34375 88.132812 C 226.328125 88.246094 226.316406 88.363281 226.304688 88.476562 C 226.070312 90.0625 224.976562 91.316406 223.574219 91.605469 C 223.472656 91.621094 223.375 91.644531 223.273438 91.65625 C 223.152344 91.671875 223.035156 91.679688 222.914062 91.679688 L 181.242188 91.910156 C 181.121094 91.910156 181.007812 91.902344 180.882812 91.890625 C 180.785156 91.882812 180.683594 91.859375 180.582031 91.84375 C 179.175781 91.570312 178.070312 90.328125 177.816406 88.746094 C 177.804688 88.632812 177.78125 88.515625 177.777344 88.402344 C 177.761719 88.265625 177.753906 88.132812 177.753906 87.996094 L 177.625 64.582031 C 177.625 64.445312 177.628906 64.3125 177.640625 64.175781 C 177.71875 63.082031 178.199219 62.121094 178.910156 61.476562 C 179.414062 61.019531 180.03125 60.71875 180.710938 60.652344 C 180.8125 60.636719 180.921875 60.628906 181.023438 60.628906 L 222.789062 60.398438 C 222.890625 60.398438 223 60.40625 223.101562 60.417969 C 223.78125 60.476562 224.402344 60.773438 224.914062 61.226562 C 225.632812 61.859375 226.121094 62.820312 226.210938 63.90625 C 226.222656 64.042969 226.230469 64.175781 226.230469 64.3125 Z M 226.230469 64.3125 " fill-opacity="1" fill-rule="nonzero"/><path fill="#000000" d="M 226.230469 64.3125 L 226.359375 87.726562 C 226.363281 87.863281 226.355469 87.996094 226.34375 88.132812 C 226.328125 88.246094 226.316406 88.363281 226.304688 88.476562 C 226.050781 90.054688 224.964844 91.300781 223.574219 91.605469 C 223.472656 91.621094 223.375 91.644531 223.273438 91.65625 C 223.152344 91.671875 223.035156 91.679688 222.914062 91.679688 L 181.242188 91.910156 C 181.121094 91.910156 181.007812 91.902344 180.882812 91.890625 C 180.785156 91.882812 180.683594 91.859375 180.582031 91.84375 C 179.191406 91.554688 178.089844 90.320312 177.816406 88.746094 C 177.804688 88.632812 177.78125 88.515625 177.777344 88.402344 C 177.761719 88.265625 177.753906 88.132812 177.753906 87.996094 L 177.625 64.582031 C 177.625 64.445312 177.628906 64.3125 177.640625 64.175781 C 177.730469 63.097656 178.210938 62.136719 178.929688 61.492188 C 179.433594 61.035156 180.046875 60.734375 180.710938 60.652344 C 180.8125 60.636719 180.921875 60.628906 181.023438 60.628906 L 222.789062 60.398438 C 222.890625 60.398438 223 60.40625 223.101562 60.417969 C 223.769531 60.492188 224.390625 60.789062 224.890625 61.234375 C 225.617188 61.875 226.109375 62.828125 226.210938 63.90625 C 226.222656 64.042969 226.230469 64.175781 226.230469 64.3125 Z M 226.230469 64.3125 " fill-opacity="0.3" fill-rule="nonzero"/><path fill="#ce539e" d="M 224.914062 61.226562 L 224.890625 61.234375 L 203.800781 74.980469 C 202.679688 75.707031 201.304688 75.714844 200.179688 75 L 178.929688 61.492188 L 178.910156 61.476562 C 179.414062 61.019531 180.03125 60.71875 180.710938 60.652344 C 180.8125 60.636719 180.921875 60.628906 181.023438 60.628906 L 222.789062 60.398438 C 222.890625 60.398438 223 60.40625 223.101562 60.417969 C 223.78125 60.476562 224.402344 60.773438 224.914062 61.226562 Z M 224.914062 61.226562 " fill-opacity="1" fill-rule="nonzero"/><path fill="#fedc00" d="M 230.785156 62.132812 C 230.785156 62.519531 230.746094 62.902344 230.671875 63.28125 C 230.597656 63.660156 230.484375 64.027344 230.335938 64.386719 C 230.191406 64.742188 230.007812 65.082031 229.792969 65.402344 C 229.582031 65.722656 229.335938 66.019531 229.066406 66.292969 C 228.792969 66.566406 228.496094 66.8125 228.175781 67.027344 C 227.855469 67.242188 227.515625 67.421875 227.160156 67.570312 C 226.804688 67.71875 226.4375 67.828125 226.058594 67.90625 C 225.679688 67.980469 225.296875 68.019531 224.914062 68.019531 C 224.527344 68.019531 224.144531 67.980469 223.765625 67.90625 C 223.390625 67.828125 223.023438 67.71875 222.664062 67.570312 C 222.308594 67.421875 221.96875 67.242188 221.648438 67.027344 C 221.328125 66.8125 221.03125 66.566406 220.761719 66.292969 C 220.488281 66.019531 220.246094 65.722656 220.03125 65.402344 C 219.816406 65.082031 219.636719 64.742188 219.488281 64.386719 C 219.339844 64.027344 219.226562 63.660156 219.152344 63.28125 C 219.078125 62.902344 219.039062 62.519531 219.039062 62.132812 C 219.039062 61.746094 219.078125 61.363281 219.152344 60.984375 C 219.226562 60.605469 219.339844 60.238281 219.488281 59.882812 C 219.636719 59.523438 219.816406 59.1875 220.03125 58.863281 C 220.246094 58.542969 220.488281 58.246094 220.761719 57.972656 C 221.03125 57.699219 221.328125 57.457031 221.648438 57.242188 C 221.96875 57.027344 222.308594 56.84375 222.664062 56.699219 C 223.023438 56.550781 223.390625 56.4375 223.765625 56.363281 C 224.144531 56.289062 224.527344 56.25 224.914062 56.25 C 225.296875 56.25 225.679688 56.289062 226.058594 56.363281 C 226.4375 56.4375 226.804688 56.550781 227.160156 56.699219 C 227.515625 56.84375 227.855469 57.027344 228.175781 57.242188 C 228.496094 57.457031 228.792969 57.699219 229.066406 57.972656 C 229.335938 58.246094 229.582031 58.542969 229.792969 58.863281 C 230.007812 59.1875 230.191406 59.523438 230.335938 59.882812 C 230.484375 60.238281 230.597656 60.605469 230.671875 60.984375 C 230.746094 61.363281 230.785156 61.746094 230.785156 62.132812 Z M 230.785156 62.132812 " fill-opacity="1" fill-rule="nonzero"/><path fill="#000000" d="M 187.433594 118.324219 C 185.148438 116.238281 183.886719 113.238281 184.039062 110.148438 C 184.078125 109.347656 184.074219 108.535156 184.019531 107.714844 C 183.324219 97.285156 174.652344 88.96875 164.226562 88.699219 C 152.722656 88.398438 143.304688 97.65625 143.304688 109.113281 C 143.304688 111.3125 143.65625 113.429688 144.296875 115.414062 C 139.195312 119.503906 135.925781 125.792969 135.925781 132.847656 C 135.925781 145.179688 145.902344 155.179688 158.210938 155.179688 C 159.648438 155.179688 161.054688 155.035156 162.417969 154.777344 C 165.007812 156.09375 167.878906 156.914062 170.910156 157.117188 C 183.90625 157.988281 194.722656 147.679688 194.722656 134.839844 C 194.722656 128.292969 191.910156 122.40625 187.433594 118.324219 Z M 187.433594 118.324219 " fill-opacity="1" fill-rule="nonzero"/><path fill="#e9a672" d="M 139.441406 159.484375 C 139.441406 153.355469 134.484375 148.386719 128.367188 148.386719 C 125.371094 148.386719 122.652344 149.585938 120.660156 151.527344 L 120.65625 151.523438 L 94.761719 172.28125 L 77.90625 141.722656 C 77.332031 140.679688 76.988281 139.527344 76.898438 138.339844 L 76.53125 133.351562 C 76.355469 131.003906 75.46875 128.761719 73.988281 126.929688 L 70.425781 122.523438 L 63.699219 113.273438 C 63.324219 112.753906 62.519531 112.871094 62.304688 113.476562 L 62.171875 113.855469 C 61.988281 114.375 61.980469 114.941406 62.148438 115.464844 L 64.300781 122.097656 C 64.171875 122.152344 64.03125 122.183594 63.878906 122.171875 L 59.058594 121.808594 C 58.554688 121.769531 58.074219 121.570312 57.691406 121.238281 L 48.613281 113.410156 C 48.375 113.203125 48.007812 113.414062 48.066406 113.726562 L 48.410156 115.578125 C 48.457031 115.835938 48.136719 115.996094 47.957031 115.808594 L 46.59375 114.359375 C 46.199219 113.941406 45.503906 114.128906 45.375 114.6875 L 45.078125 115.960938 C 44.167969 119.875 45.152344 123.988281 47.730469 127.0625 L 56.289062 137.261719 C 57.417969 138.605469 58.945312 139.554688 60.648438 139.964844 L 65.324219 141.089844 C 66.292969 141.324219 67.066406 142.046875 67.367188 143 L 78.449219 178.207031 L 84.867188 178.207031 C 83.925781 179.679688 83.371094 181.425781 83.371094 183.308594 C 83.371094 188.539062 87.605469 192.78125 92.824219 192.78125 C 94.699219 192.78125 96.445312 192.226562 97.914062 191.28125 L 97.914062 191.285156 L 133.476562 169.332031 L 133.472656 169.328125 C 137.019531 167.480469 139.441406 163.769531 139.441406 159.484375 Z M 139.441406 159.484375 " fill-opacity="1" fill-rule="nonzero"/><path fill="#fedc00" d="M 194.710938 158.304688 C 194.621094 154.09375 192.511719 149.851562 188.667969 147.074219 C 187.757812 146.414062 186.796875 145.878906 185.8125 145.453125 C 170.023438 136.980469 153.710938 136.523438 136.355469 143.554688 L 113.644531 153.152344 L 124.082031 172.832031 C 122.027344 185.027344 121.011719 198.828125 127.699219 209.753906 C 127.699219 209.753906 182.617188 209.753906 182.617188 209.753906 C 182.617188 209.753906 184.726562 197.992188 186.667969 184.652344 L 192.632812 184.855469 L 194.523438 160.824219 C 194.667969 160.007812 194.730469 159.183594 194.714844 158.351562 L 194.722656 158.304688 Z M 194.710938 158.304688 " fill-opacity="1" fill-rule="nonzero"/><path fill="#f5faf4" d="M 146.722656 122.035156 C 146.722656 122.417969 146.648438 122.78125 146.503906 123.132812 C 146.359375 123.484375 146.152344 123.796875 145.882812 124.066406 C 145.617188 124.332031 145.304688 124.542969 144.953125 124.6875 C 144.605469 124.832031 144.238281 124.90625 143.859375 124.90625 C 143.480469 124.90625 143.113281 124.832031 142.761719 124.6875 C 142.410156 124.542969 142.101562 124.332031 141.832031 124.066406 C 141.566406 123.796875 141.359375 123.484375 141.214844 123.132812 C 141.066406 122.78125 140.996094 122.417969 140.996094 122.035156 C 140.996094 121.65625 141.066406 121.289062 141.214844 120.9375 C 141.359375 120.585938 141.566406 120.277344 141.832031 120.007812 C 142.101562 119.738281 142.410156 119.53125 142.761719 119.382812 C 143.113281 119.238281 143.480469 119.164062 143.859375 119.164062 C 144.238281 119.164062 144.605469 119.238281 144.953125 119.382812 C 145.304688 119.53125 145.617188 119.738281 145.882812 120.007812 C 146.152344 120.277344 146.359375 120.585938 146.503906 120.9375 C 146.648438 121.289062 146.722656 121.65625 146.722656 122.035156 Z M 146.722656 122.035156 " fill-opacity="1" fill-rule="nonzero"/><path fill="#e9a672" d="M 175.886719 115.363281 C 175.429688 115.367188 174.976562 115.433594 174.527344 115.539062 L 177.894531 100.257812 C 178.296875 98.4375 177.152344 96.636719 175.335938 96.234375 L 162.191406 93.324219 C 155.285156 91.796875 148.449219 96.167969 146.921875 103.085938 L 144.285156 115.054688 C 142.707031 122.203125 146.589844 129.28125 153.144531 131.9375 L 153.144531 140.894531 C 150.074219 141.640625 148.066406 142.871094 148.066406 144.265625 C 148.066406 146.542969 153.421875 148.386719 160.03125 148.386719 C 166.636719 148.386719 171.996094 146.542969 171.996094 144.265625 C 171.996094 142.898438 170.0625 141.6875 167.085938 140.9375 L 167.085938 132.542969 C 169.183594 131.382812 170.886719 129.523438 171.8125 127.191406 C 172.253906 127.3125 172.730469 127.382812 173.238281 127.378906 C 176.445312 127.34375 179.640625 124.625 180.375 121.308594 C 181.105469 117.992188 179.097656 115.328125 175.886719 115.363281 Z M 175.886719 115.363281 " fill-opacity="1" fill-rule="nonzero"/><path fill="#e9a672" d="M 185.664062 184.621094 L 180.652344 204.640625 C 180.257812 206.34375 179.398438 207.957031 178.054688 209.273438 C 174.722656 212.53125 169.605469 212.8125 165.953125 210.1875 L 165.941406 210.203125 L 137.542969 201.460938 L 130.9375 198.019531 L 127.414062 201.675781 C 125.632812 203.527344 123.042969 204.121094 120.796875 203.191406 L 112.894531 199.925781 C 111.570312 199.375 110.046875 199.597656 108.855469 200.515625 L 106.152344 202.605469 C 105.148438 203.375 103.886719 203.621094 102.730469 203.277344 L 97.832031 201.820312 C 96.824219 201.519531 96.539062 200.140625 97.324219 199.347656 L 101.96875 194.625 L 96.429688 198.347656 C 95.105469 199.238281 93.515625 199.5 92.042969 199.082031 C 91.75 198.996094 91.679688 198.597656 91.917969 198.382812 L 97.738281 193.175781 C 98.371094 192.613281 99.136719 192.257812 99.945312 192.164062 L 128.675781 188.78125 C 129.347656 188.703125 130.03125 188.773438 130.679688 188.976562 L 165.226562 192.714844 L 166.300781 183.976562 Z M 185.664062 184.621094 " fill-opacity="1" fill-rule="nonzero"/><path fill="#000000" d="M 139.453125 206.011719 L 100.574219 206.011719 L 88.105469 171.542969 C 87.320312 169.367188 84.917969 167.601562 82.746094 167.601562 L 33.476562 167.601562 C 31.304688 167.601562 30.179688 169.367188 30.96875 171.542969 L 43.527344 206.261719 C 44.316406 208.4375 46.714844 210.203125 48.886719 210.203125 L 142.351562 210.203125 C 142.683594 210.203125 142.949219 209.933594 142.949219 209.601562 L 142.949219 209.519531 C 142.949219 207.582031 141.382812 206.011719 139.453125 206.011719 Z M 139.453125 206.011719 " fill-opacity="1" fill-rule="nonzero"/><path fill="#f5faf4" d="M 68.875 185.230469 C 69.222656 185.519531 69.542969 185.828125 69.84375 186.160156 C 70.140625 186.488281 70.410156 186.835938 70.652344 187.191406 C 70.894531 187.550781 71.105469 187.917969 71.277344 188.292969 C 71.453125 188.667969 71.59375 189.039062 71.695312 189.414062 C 71.796875 189.789062 71.859375 190.15625 71.882812 190.519531 C 71.910156 190.878906 71.894531 191.226562 71.839844 191.558594 C 71.789062 191.890625 71.695312 192.203125 71.566406 192.496094 C 71.4375 192.789062 71.269531 193.058594 71.070312 193.296875 C 70.871094 193.539062 70.636719 193.75 70.371094 193.929688 C 70.109375 194.109375 69.816406 194.253906 69.5 194.367188 C 69.183594 194.480469 68.84375 194.554688 68.484375 194.597656 C 68.125 194.636719 67.753906 194.640625 67.367188 194.605469 C 66.984375 194.570312 66.589844 194.503906 66.191406 194.394531 C 65.792969 194.289062 65.398438 194.148438 65 193.976562 C 64.605469 193.800781 64.21875 193.597656 63.84375 193.359375 C 63.464844 193.125 63.101562 192.863281 62.757812 192.574219 C 62.414062 192.285156 62.089844 191.976562 61.792969 191.644531 C 61.492188 191.316406 61.222656 190.96875 60.980469 190.609375 C 60.738281 190.253906 60.53125 189.886719 60.355469 189.511719 C 60.179688 189.136719 60.042969 188.765625 59.941406 188.390625 C 59.835938 188.015625 59.773438 187.648438 59.75 187.285156 C 59.726562 186.925781 59.738281 186.578125 59.792969 186.246094 C 59.847656 185.914062 59.9375 185.601562 60.066406 185.308594 C 60.199219 185.015625 60.363281 184.746094 60.5625 184.507812 C 60.765625 184.265625 60.996094 184.054688 61.261719 183.875 C 61.527344 183.695312 61.816406 183.546875 62.132812 183.4375 C 62.453125 183.324219 62.789062 183.246094 63.148438 183.207031 C 63.507812 183.167969 63.878906 183.164062 64.265625 183.199219 C 64.652344 183.230469 65.042969 183.300781 65.441406 183.40625 C 65.839844 183.515625 66.238281 183.652344 66.632812 183.828125 C 67.027344 184.003906 67.414062 184.207031 67.792969 184.445312 C 68.167969 184.679688 68.53125 184.941406 68.875 185.230469 Z M 68.875 185.230469 " fill-opacity="1" fill-rule="nonzero"/><g clip-path="url(#3073c6441d)"><path fill="#ce539e" d="M 156.769531 188.957031 C 156.652344 187.570312 155.484375 186.496094 154.09375 186.496094 L 138.210938 186.496094 C 136.824219 186.496094 135.65625 187.546875 135.53125 188.929688 C 135.46875 189.640625 135.421875 190.351562 135.390625 191.0625 C 131.675781 191.988281 128.921875 195.355469 128.921875 199.363281 C 128.921875 204.089844 132.75 207.917969 137.464844 207.917969 C 137.582031 207.917969 137.707031 207.917969 137.828125 207.902344 C 138.132812 208.84375 138.480469 209.792969 138.851562 210.734375 C 139.261719 211.765625 140.25 212.457031 141.359375 212.457031 L 151.066406 212.457031 C 152.128906 212.457031 153.089844 211.820312 153.527344 210.851562 C 156.394531 204.480469 157.472656 197.183594 156.769531 188.957031 Z M 130.3125 199.363281 C 130.3125 196.152344 132.4375 193.417969 135.359375 192.511719 C 135.300781 197.183594 135.984375 201.851562 137.390625 206.523438 C 133.480469 206.480469 130.3125 203.289062 130.3125 199.363281 Z M 130.3125 199.363281 " fill-opacity="1" fill-rule="nonzero"/></g><path fill="#000000" d="M 163.628906 100.957031 L 157.097656 112.089844 L 140.671875 109.148438 C 140.679688 101.824219 143.84375 96.253906 152.066406 93.5 C 159.585938 88.773438 166.847656 89.492188 173.957031 93.503906 C 178.152344 95.875 180.464844 100.597656 179.917969 105.394531 L 178.328125 119.359375 C 171.414062 116.6875 166.117188 111.238281 163.628906 100.957031 Z M 163.628906 100.957031 " fill-opacity="1" fill-rule="nonzero"/><path fill="#f5faf4" d="M 174.859375 127.304688 C 174.859375 127.683594 174.785156 128.050781 174.640625 128.402344 C 174.496094 128.753906 174.289062 129.0625 174.019531 129.332031 C 173.75 129.601562 173.441406 129.808594 173.089844 129.953125 C 172.742188 130.101562 172.375 130.171875 171.996094 130.171875 C 171.617188 130.171875 171.25 130.101562 170.898438 129.953125 C 170.546875 129.808594 170.238281 129.601562 169.96875 129.332031 C 169.703125 129.0625 169.496094 128.753906 169.347656 128.402344 C 169.203125 128.050781 169.132812 127.683594 169.132812 127.304688 C 169.132812 126.921875 169.203125 126.558594 169.347656 126.207031 C 169.496094 125.855469 169.703125 125.542969 169.96875 125.273438 C 170.238281 125.003906 170.546875 124.796875 170.898438 124.652344 C 171.25 124.507812 171.617188 124.433594 171.996094 124.433594 C 172.375 124.433594 172.742188 124.507812 173.089844 124.652344 C 173.441406 124.796875 173.75 125.003906 174.019531 125.273438 C 174.289062 125.542969 174.496094 125.855469 174.640625 126.207031 C 174.785156 126.558594 174.859375 126.921875 174.859375 127.304688 Z M 174.859375 127.304688 " fill-opacity="1" fill-rule="nonzero"/></svg>