<svg xmlns="http://www.w3.org/2000/svg" xmlns:xlink="http://www.w3.org/1999/xlink" width="128" zoomAndPan="magnify" viewBox="0 0 96 95.999999" height="128" preserveAspectRatio="xMidYMid meet" version="1.0"><defs><clipPath id="891b3a4489"><path d="M 2 67 L 78 67 L 78 82.351562 L 2 82.351562 Z M 2 67 " clip-rule="nonzero"/></clipPath><clipPath id="580cbff530"><path d="M 86 70 L 94.183594 70 L 94.183594 80 L 86 80 Z M 86 70 " clip-rule="nonzero"/></clipPath></defs><path fill="#0080ff" d="M 48.058594 59.5625 L 48.058594 50.613281 C 57.515625 50.613281 64.855469 41.222656 61.222656 31.253906 C 59.890625 27.589844 56.941406 24.636719 53.257812 23.300781 C 43.304688 19.691406 33.929688 27.015625 33.929688 36.488281 L 25.023438 36.488281 C 25.023438 21.390625 39.597656 9.617188 55.398438 14.5625 C 62.296875 16.734375 67.804688 22.226562 69.949219 29.136719 C 74.886719 44.964844 63.132812 59.5625 48.058594 59.5625 Z M 48.058594 59.5625 " fill-opacity="1" fill-rule="nonzero"/><path fill="#0080ff" d="M 39.179688 50.667969 L 39.179688 41.746094 L 48.085938 41.746094 L 48.085938 50.667969 Z M 32.363281 57.496094 L 32.363281 50.667969 L 39.179688 50.667969 L 39.179688 57.496094 Z M 32.363281 50.667969 L 26.640625 50.667969 L 26.640625 44.9375 L 32.363281 44.9375 Z M 32.363281 50.667969 " fill-opacity="1" fill-rule="evenodd"/><g clip-path="url(#891b3a4489)"><path fill="#0080ff" d="M 9.976562 68.613281 C 8.828125 67.804688 7.367188 67.410156 5.695312 67.410156 L 2.039062 67.410156 L 2.039062 79.054688 L 5.722656 79.054688 C 7.390625 79.054688 8.855469 78.636719 10.003906 77.773438 C 10.632812 77.328125 11.128906 76.699219 11.492188 75.914062 C 11.832031 75.128906 12.015625 74.1875 12.015625 73.167969 C 12.015625 72.148438 11.832031 71.230469 11.492188 70.445312 C 11.128906 69.660156 10.632812 69.035156 9.976562 68.613281 Z M 4.179688 69.375 L 5.328125 69.375 C 6.609375 69.375 7.652344 69.636719 8.464844 70.132812 C 9.351562 70.683594 9.796875 71.703125 9.796875 73.167969 C 9.796875 74.683594 9.351562 75.757812 8.464844 76.332031 C 7.707031 76.832031 6.660156 77.089844 5.355469 77.089844 L 4.179688 77.089844 Z M 14.550781 67.253906 C 14.183594 67.253906 13.894531 67.386719 13.636719 67.621094 C 13.398438 67.855469 13.269531 68.144531 13.269531 68.511719 C 13.269531 68.875 13.398438 69.164062 13.636719 69.425781 C 13.871094 69.660156 14.183594 69.792969 14.550781 69.792969 C 14.890625 69.792969 15.203125 69.660156 15.464844 69.425781 C 15.699219 69.191406 15.828125 68.875 15.828125 68.511719 C 15.828125 68.144531 15.699219 67.855469 15.464844 67.621094 C 15.203125 67.386719 14.890625 67.253906 14.550781 67.253906 Z M 13.503906 70.839844 L 15.566406 70.839844 L 15.566406 79.054688 L 13.503906 79.054688 Z M 23.0625 71.519531 C 22.4375 70.96875 21.757812 70.628906 21 70.628906 C 19.851562 70.628906 18.910156 71.023438 18.179688 71.808594 C 17.449219 72.566406 17.054688 73.558594 17.054688 74.761719 C 17.054688 75.914062 17.421875 76.910156 18.152344 77.695312 C 18.886719 78.453125 19.851562 78.84375 20.972656 78.84375 C 21.757812 78.84375 22.464844 78.636719 23.011719 78.191406 L 23.011719 78.375 C 23.011719 79.054688 22.828125 79.578125 22.464844 79.945312 C 22.097656 80.308594 21.601562 80.492188 20.972656 80.492188 C 20.035156 80.492188 19.433594 80.125 18.703125 79.132812 L 17.292969 80.492188 L 17.316406 80.546875 C 17.632812 80.964844 18.074219 81.382812 18.703125 81.773438 C 19.304688 82.167969 20.085938 82.375 21 82.375 C 22.226562 82.375 23.222656 82.011719 23.953125 81.25 C 24.683594 80.492188 25.050781 79.5 25.050781 78.269531 L 25.050781 70.8125 L 23.011719 70.8125 L 23.011719 71.519531 Z M 22.515625 76.386719 C 22.148438 76.804688 21.679688 76.988281 21.105469 76.988281 C 20.503906 76.988281 20.058594 76.777344 19.695312 76.386719 C 19.328125 75.964844 19.171875 75.445312 19.171875 74.789062 C 19.171875 74.109375 19.355469 73.585938 19.695312 73.167969 C 20.035156 72.75 20.53125 72.566406 21.105469 72.566406 C 21.707031 72.566406 22.148438 72.773438 22.515625 73.167969 C 22.882812 73.585938 23.0625 74.136719 23.0625 74.789062 C 23.0625 75.445312 22.882812 75.964844 22.515625 76.386719 Z M 26.851562 70.839844 L 28.914062 70.839844 L 28.914062 79.054688 L 26.851562 79.054688 Z M 27.894531 67.253906 C 27.53125 67.253906 27.242188 67.386719 26.980469 67.621094 C 26.746094 67.855469 26.617188 68.144531 26.617188 68.511719 C 26.617188 68.875 26.746094 69.164062 26.980469 69.425781 C 27.21875 69.660156 27.53125 69.792969 27.894531 69.792969 C 28.234375 69.792969 28.550781 69.660156 28.808594 69.425781 C 29.046875 69.191406 29.175781 68.875 29.175781 68.511719 C 29.175781 68.144531 29.046875 67.855469 28.808594 67.621094 C 28.550781 67.386719 28.261719 67.253906 27.894531 67.253906 Z M 33.433594 68.613281 L 31.394531 68.613281 L 31.394531 70.839844 L 30.222656 70.839844 L 30.222656 72.722656 L 31.394531 72.722656 L 31.394531 76.125 C 31.394531 77.195312 31.605469 77.957031 32.023438 78.398438 C 32.441406 78.84375 33.199219 79.054688 34.242188 79.054688 L 35.234375 79.027344 L 35.339844 79.027344 L 35.339844 77.144531 L 34.636719 77.171875 C 34.140625 77.171875 33.824219 77.089844 33.667969 76.910156 C 33.511719 76.726562 33.433594 76.359375 33.433594 75.808594 L 33.433594 72.695312 L 35.367188 72.695312 L 35.367188 70.8125 L 33.433594 70.8125 Z M 45.03125 67.386719 L 47.09375 67.386719 L 47.09375 79.054688 L 45.03125 79.054688 Z M 67.9375 76.125 C 67.570312 76.542969 67.179688 76.910156 66.890625 77.089844 C 66.605469 77.273438 66.238281 77.378906 65.820312 77.378906 C 65.222656 77.378906 64.722656 77.171875 64.332031 76.699219 C 63.941406 76.253906 63.730469 75.652344 63.730469 74.972656 C 63.730469 74.265625 63.941406 73.691406 64.332031 73.246094 C 64.722656 72.800781 65.222656 72.566406 65.820312 72.566406 C 66.472656 72.566406 67.179688 72.984375 67.78125 73.691406 L 69.140625 72.382812 C 68.25 71.230469 67.128906 70.683594 65.769531 70.683594 C 64.644531 70.683594 63.652344 71.101562 62.84375 71.910156 C 62.035156 72.722656 61.640625 73.742188 61.640625 74.972656 C 61.640625 76.203125 62.058594 77.222656 62.84375 78.035156 C 63.652344 78.84375 64.621094 79.261719 65.769531 79.261719 C 67.257812 79.261719 68.460938 78.609375 69.296875 77.433594 Z M 76.425781 71.988281 C 76.140625 71.570312 75.746094 71.257812 75.25 71.023438 C 74.753906 70.785156 74.179688 70.65625 73.554688 70.65625 C 72.402344 70.65625 71.464844 71.074219 70.757812 71.910156 C 70.078125 72.75 69.714844 73.769531 69.714844 75 C 69.714844 76.253906 70.105469 77.273438 70.835938 78.058594 C 71.59375 78.84375 72.585938 79.238281 73.8125 79.238281 C 75.199219 79.238281 76.347656 78.660156 77.210938 77.5625 L 77.261719 77.511719 L 75.902344 76.203125 C 75.773438 76.359375 75.589844 76.515625 75.433594 76.671875 C 75.222656 76.855469 75.042969 77.011719 74.832031 77.117188 C 74.519531 77.273438 74.179688 77.351562 73.789062 77.351562 C 73.214844 77.351562 72.742188 77.195312 72.378906 76.855469 C 72.039062 76.542969 71.828125 76.125 71.777344 75.601562 L 77.234375 75.601562 L 77.261719 74.839844 C 77.261719 74.320312 77.183594 73.796875 77.054688 73.324219 C 76.921875 72.851562 76.714844 72.410156 76.425781 71.988281 Z M 71.90625 73.925781 C 72.011719 73.535156 72.195312 73.195312 72.457031 72.957031 C 72.742188 72.671875 73.109375 72.539062 73.527344 72.539062 C 74.023438 72.539062 74.414062 72.671875 74.675781 72.957031 C 74.910156 73.21875 75.066406 73.535156 75.09375 73.925781 Z M 71.90625 73.925781 " fill-opacity="1" fill-rule="nonzero"/></g><path fill="#0080ff" d="M 84.339844 71.464844 C 83.714844 70.945312 82.851562 70.65625 81.78125 70.65625 C 81.109375 70.652344 80.472656 70.800781 79.875 71.101562 C 79.324219 71.363281 78.804688 71.832031 78.464844 72.410156 L 78.488281 72.433594 L 79.820312 73.691406 C 80.371094 72.828125 80.972656 72.511719 81.78125 72.511719 C 82.222656 72.511719 82.5625 72.617188 82.851562 72.851562 C 83.113281 73.089844 83.269531 73.375 83.269531 73.742188 L 83.269531 74.136719 C 82.746094 73.976562 82.25 73.898438 81.753906 73.898438 C 80.734375 73.898438 79.898438 74.136719 79.273438 74.605469 C 78.644531 75.078125 78.332031 75.785156 78.332031 76.671875 C 78.332031 77.457031 78.59375 78.058594 79.140625 78.53125 C 79.691406 78.976562 80.34375 79.210938 81.128906 79.210938 C 81.910156 79.210938 82.640625 78.898438 83.320312 78.347656 L 83.320312 79.027344 L 85.359375 79.027344 L 85.359375 73.742188 C 85.28125 72.773438 84.96875 71.988281 84.339844 71.464844 Z M 80.683594 75.914062 C 80.917969 75.757812 81.257812 75.679688 81.675781 75.679688 C 82.171875 75.679688 82.695312 75.785156 83.242188 75.964844 L 83.242188 76.777344 C 82.800781 77.195312 82.199219 77.40625 81.46875 77.40625 C 81.101562 77.40625 80.839844 77.328125 80.632812 77.171875 C 80.449219 77.011719 80.34375 76.832031 80.34375 76.570312 C 80.34375 76.28125 80.449219 76.070312 80.683594 75.914062 Z M 80.683594 75.914062 " fill-opacity="1" fill-rule="nonzero"/><g clip-path="url(#580cbff530)"><path fill="#0080ff" d="M 93.222656 71.625 C 92.644531 70.96875 91.835938 70.65625 90.816406 70.65625 C 90.007812 70.65625 89.328125 70.890625 88.832031 71.363281 L 88.832031 70.863281 L 86.820312 70.863281 L 86.820312 79.054688 L 88.886719 79.054688 L 88.886719 74.527344 C 88.886719 73.898438 89.042969 73.402344 89.328125 73.0625 C 89.617188 72.722656 90.007812 72.539062 90.554688 72.539062 C 91.027344 72.539062 91.367188 72.695312 91.628906 73.011719 C 91.890625 73.324219 92.019531 73.769531 92.019531 74.292969 L 92.019531 79.054688 L 94.082031 79.054688 L 94.082031 74.292969 C 94.082031 73.167969 93.796875 72.25 93.222656 71.625 Z M 93.222656 71.625 " fill-opacity="1" fill-rule="nonzero"/></g><path fill="#0080ff" d="M 42.445312 71.464844 C 41.816406 70.945312 40.957031 70.65625 39.886719 70.65625 C 39.214844 70.652344 38.578125 70.800781 37.976562 71.101562 C 37.429688 71.363281 36.90625 71.832031 36.566406 72.410156 L 36.59375 72.433594 L 37.925781 73.691406 C 38.472656 72.828125 39.074219 72.511719 39.886719 72.511719 C 40.328125 72.511719 40.667969 72.617188 40.957031 72.851562 C 41.21875 73.089844 41.375 73.375 41.375 73.742188 L 41.375 74.136719 C 40.851562 73.976562 40.355469 73.898438 39.859375 73.898438 C 38.839844 73.898438 38.003906 74.136719 37.378906 74.605469 C 36.75 75.078125 36.4375 75.785156 36.4375 76.671875 C 36.4375 77.457031 36.699219 78.058594 37.246094 78.53125 C 37.796875 78.976562 38.449219 79.210938 39.230469 79.210938 C 40.015625 79.210938 40.746094 78.898438 41.425781 78.347656 L 41.425781 79.027344 L 43.464844 79.027344 L 43.464844 73.742188 C 43.386719 72.773438 43.070312 71.988281 42.445312 71.464844 Z M 38.789062 75.914062 C 39.023438 75.757812 39.363281 75.679688 39.78125 75.679688 C 40.277344 75.679688 40.800781 75.785156 41.347656 75.964844 L 41.347656 76.777344 C 40.902344 77.195312 40.304688 77.40625 39.570312 77.40625 C 39.207031 77.40625 38.945312 77.328125 38.734375 77.171875 C 38.554688 77.011719 38.449219 76.832031 38.449219 76.570312 C 38.449219 76.28125 38.554688 76.070312 38.789062 75.914062 Z M 38.789062 75.914062 " fill-opacity="1" fill-rule="nonzero"/><path fill="#0080ff" d="M 54.589844 79.238281 C 51.273438 79.238281 48.582031 76.542969 48.582031 73.21875 C 48.582031 69.898438 51.273438 67.203125 54.589844 67.203125 C 57.90625 67.203125 60.597656 69.898438 60.597656 73.21875 C 60.597656 76.542969 57.90625 79.238281 54.589844 79.238281 Z M 54.589844 69.320312 C 52.449219 69.320312 50.699219 71.074219 50.699219 73.21875 C 50.699219 75.363281 52.449219 77.117188 54.589844 77.117188 C 56.730469 77.117188 58.480469 75.363281 58.480469 73.21875 C 58.480469 71.074219 56.730469 69.320312 54.589844 69.320312 Z M 54.589844 69.320312 " fill-opacity="1" fill-rule="nonzero"/></svg>