<svg xmlns="http://www.w3.org/2000/svg" xmlns:xlink="http://www.w3.org/1999/xlink" width="129" zoomAndPan="magnify" viewBox="0 0 96.75 30.000001" height="40" preserveAspectRatio="xMidYMid meet" version="1.0"><defs><clipPath id="66eff1a05e"><path d="M 20 16 L 23 16 L 23 20.800781 L 20 20.800781 Z M 20 16 " clip-rule="nonzero"/></clipPath><clipPath id="4fbfd5ec41"><path d="M 40 16 L 46 16 L 46 20.800781 L 40 20.800781 Z M 40 16 " clip-rule="nonzero"/></clipPath><clipPath id="59ec2f119f"><path d="M 12.140625 8.460938 L 17 8.460938 L 17 13 L 12.140625 13 Z M 12.140625 8.460938 " clip-rule="nonzero"/></clipPath></defs><path fill="#000000" d="M 23.378906 10.476562 L 31.714844 10.476562 L 31.714844 15.511719 L 28.21875 15.511719 L 31.714844 18.734375 L 28.746094 18.734375 L 25.316406 15.511719 L 25.316406 18.734375 L 23.378906 18.734375 L 23.378906 13.613281 L 29.492188 13.613281 L 29.492188 12.390625 L 23.378906 12.390625 Z M 23.378906 10.476562 " fill-opacity="1" fill-rule="nonzero"/><path fill="#000000" d="M 32.582031 18.734375 L 34.617188 18.734375 L 34.617188 10.457031 L 32.582031 10.457031 Z M 32.582031 18.734375 " fill-opacity="1" fill-rule="nonzero"/><path fill="#000000" d="M 16.265625 16.738281 L 16.265625 10.476562 L 14.671875 10.476562 C 14.382812 10.476562 14.160156 10.691406 14.160156 10.960938 C 14.160156 12.4375 14.144531 16.789062 14.144531 18.230469 C 14.144531 18.5 14.363281 18.734375 14.636719 18.734375 C 15.742188 18.734375 18.914062 18.734375 19.375 18.734375 L 19.375 16.738281 Z M 16.265625 16.738281 " fill-opacity="1" fill-rule="nonzero"/><g clip-path="url(#66eff1a05e)"><path fill="#000000" d="M 20.425781 20.800781 C 20.613281 20.800781 22.039062 20.800781 22.515625 20.800781 C 22.515625 20.800781 22.515625 16.71875 22.515625 16.652344 C 21.835938 16.652344 21.121094 16.652344 20.425781 16.652344 C 20.425781 18.03125 20.425781 19.40625 20.425781 20.800781 Z M 20.425781 20.800781 " fill-opacity="1" fill-rule="nonzero"/></g><path fill="#000000" d="M 17.285156 10.476562 C 17.285156 10.507812 17.285156 12.539062 17.285156 12.539062 C 18.21875 12.539062 19.40625 12.539062 20.425781 12.539062 C 20.425781 13.96875 20.425781 15.628906 20.425781 15.628906 C 20.902344 15.628906 22.328125 15.628906 22.515625 15.628906 L 22.515625 10.980469 C 22.515625 10.710938 22.292969 10.492188 22.023438 10.476562 C 21.003906 10.476562 18.59375 10.476562 17.285156 10.476562 Z M 17.285156 10.476562 " fill-opacity="1" fill-rule="nonzero"/><path fill="#000000" d="M 17.285156 13.546875 C 17.285156 14.234375 17.285156 14.921875 17.285156 15.644531 C 17.453125 15.644531 17.640625 15.644531 17.8125 15.644531 C 18.285156 15.644531 18.882812 15.644531 19.355469 15.644531 C 19.355469 15.644531 19.355469 13.582031 19.355469 13.546875 C 18.675781 13.546875 17.980469 13.546875 17.285156 13.546875 Z M 18.746094 15.007812 C 18.542969 15.007812 18.304688 15.007812 18.117188 15.007812 C 18.050781 15.007812 17.980469 15.007812 17.894531 15.007812 C 17.894531 14.722656 17.894531 14.453125 17.894531 14.167969 C 18.183594 14.167969 18.457031 14.167969 18.746094 14.167969 C 18.746094 14.183594 18.746094 15.007812 18.746094 15.007812 Z M 18.746094 15.007812 " fill-opacity="1" fill-rule="nonzero"/><g clip-path="url(#4fbfd5ec41)"><path fill="#000000" d="M 44.617188 16.652344 L 44.617188 19.742188 C 44.617188 20.011719 44.378906 20.230469 44.109375 20.230469 L 40.984375 20.230469 L 40.984375 20.730469 L 44.636719 20.730469 C 44.890625 20.730469 45.109375 20.515625 45.109375 20.246094 L 45.109375 16.652344 Z M 44.617188 16.652344 " fill-opacity="1" fill-rule="nonzero"/></g><g clip-path="url(#59ec2f119f)"><path fill="#000000" d="M 13.296875 12.523438 L 13.296875 9.433594 C 13.296875 9.164062 13.5 8.964844 13.769531 8.964844 L 16.894531 8.964844 C 16.910156 8.964844 16.910156 8.949219 16.910156 8.949219 L 16.910156 8.476562 C 16.910156 8.476562 16.910156 8.460938 16.894531 8.460938 L 13.296875 8.460938 C 13.007812 8.460938 12.785156 8.679688 12.785156 8.964844 L 12.785156 12.523438 C 12.785156 12.539062 12.804688 12.539062 12.804688 12.539062 L 13.277344 12.539062 C 13.277344 12.539062 13.296875 12.539062 13.296875 12.523438 Z M 13.296875 12.523438 " fill-opacity="1" fill-rule="nonzero"/></g><path fill="#000000" d="M 43.734375 12.523438 L 43.734375 10.476562 L 35.5 10.476562 L 35.5 15.613281 L 40.984375 15.613281 L 40.984375 16.636719 L 35.5 16.636719 L 35.5 18.699219 L 43.734375 18.699219 L 43.734375 13.5625 L 38.25 13.5625 L 38.25 12.523438 Z M 43.734375 12.523438 " fill-opacity="1" fill-rule="nonzero"/><path fill="#000000" d="M 49.675781 13.445312 L 47.859375 13.445312 C 47.640625 13.445312 47.4375 13.414062 47.234375 13.328125 C 47.046875 13.261719 46.859375 13.144531 46.722656 13.007812 C 46.570312 12.859375 46.453125 12.691406 46.367188 12.507812 C 46.28125 12.304688 46.230469 12.101562 46.230469 11.867188 C 46.230469 11.632812 46.28125 11.433594 46.367188 11.230469 C 46.453125 11.046875 46.554688 10.859375 46.707031 10.726562 C 46.859375 10.574219 47.027344 10.476562 47.214844 10.390625 C 47.417969 10.308594 47.621094 10.273438 47.859375 10.273438 C 48.082031 10.273438 48.285156 10.308594 48.488281 10.390625 C 48.675781 10.476562 48.84375 10.574219 48.996094 10.710938 C 49.132812 10.859375 49.253906 11.011719 49.335938 11.214844 C 49.421875 11.398438 49.457031 11.597656 49.457031 11.816406 C 49.457031 11.953125 49.4375 12.085938 49.421875 12.203125 C 49.386719 12.339844 49.335938 12.457031 49.269531 12.574219 C 49.21875 12.675781 49.132812 12.773438 49.050781 12.859375 C 48.964844 12.960938 48.863281 13.027344 48.742188 13.078125 L 49.675781 13.078125 Z M 47.84375 13.058594 C 48.011719 13.058594 48.183594 13.027344 48.320312 12.960938 C 48.453125 12.890625 48.589844 12.808594 48.691406 12.707031 C 48.792969 12.589844 48.863281 12.472656 48.929688 12.320312 C 48.980469 12.171875 49.015625 12.003906 49.015625 11.835938 C 49.015625 11.683594 48.980469 11.515625 48.929688 11.382812 C 48.863281 11.230469 48.777344 11.113281 48.675781 11.011719 C 48.574219 10.894531 48.453125 10.8125 48.320312 10.761719 C 48.167969 10.691406 48.011719 10.660156 47.84375 10.660156 C 47.675781 10.660156 47.519531 10.691406 47.386719 10.761719 C 47.25 10.8125 47.128906 10.894531 47.027344 11.011719 C 46.925781 11.113281 46.84375 11.230469 46.773438 11.382812 C 46.722656 11.515625 46.6875 11.667969 46.6875 11.835938 C 46.6875 12.003906 46.722656 12.152344 46.773438 12.304688 C 46.824219 12.457031 46.910156 12.589844 47.011719 12.691406 C 47.113281 12.808594 47.234375 12.890625 47.386719 12.960938 C 47.519531 13.027344 47.675781 13.058594 47.84375 13.058594 Z M 47.84375 13.058594 " fill-opacity="1" fill-rule="nonzero"/><path fill="#000000" d="M 50.117188 10.339844 L 51.222656 10.339844 C 51.425781 10.339844 51.59375 10.375 51.714844 10.425781 C 51.851562 10.492188 51.953125 10.558594 52.035156 10.644531 C 52.105469 10.726562 52.15625 10.8125 52.191406 10.910156 C 52.222656 11.011719 52.222656 11.113281 52.222656 11.214844 C 52.222656 11.3125 52.207031 11.414062 52.171875 11.5 C 52.140625 11.597656 52.089844 11.683594 52.019531 11.75 C 51.953125 11.835938 51.882812 11.886719 51.78125 11.933594 C 51.679688 11.984375 51.578125 12.019531 51.460938 12.035156 L 52.359375 13.445312 L 51.816406 13.445312 L 51.019531 12.085938 L 50.542969 12.085938 L 50.542969 13.445312 L 50.117188 13.445312 Z M 50.542969 11.71875 L 51.101562 11.71875 C 51.1875 11.71875 51.273438 11.71875 51.359375 11.699219 C 51.425781 11.683594 51.511719 11.667969 51.5625 11.617188 C 51.628906 11.582031 51.679688 11.53125 51.714844 11.464844 C 51.765625 11.414062 51.78125 11.3125 51.78125 11.214844 C 51.78125 11.113281 51.765625 11.027344 51.714844 10.960938 C 51.679688 10.894531 51.628906 10.84375 51.5625 10.8125 C 51.511719 10.777344 51.425781 10.742188 51.359375 10.742188 C 51.273438 10.726562 51.1875 10.710938 51.101562 10.710938 L 50.542969 10.710938 Z M 50.542969 11.71875 " fill-opacity="1" fill-rule="nonzero"/><path fill="#000000" d="M 56.246094 11.011719 C 56.164062 10.910156 56.042969 10.8125 55.90625 10.761719 C 55.773438 10.691406 55.636719 10.660156 55.484375 10.660156 C 55.3125 10.660156 55.144531 10.691406 55.007812 10.761719 C 54.871094 10.828125 54.734375 10.910156 54.632812 11.027344 C 54.53125 11.148438 54.464844 11.28125 54.398438 11.433594 C 54.34375 11.582031 54.3125 11.75 54.3125 11.917969 C 54.3125 12.085938 54.34375 12.238281 54.398438 12.390625 C 54.449219 12.539062 54.53125 12.675781 54.632812 12.773438 C 54.734375 12.890625 54.855469 12.976562 54.992188 13.042969 C 55.144531 13.109375 55.3125 13.144531 55.484375 13.144531 C 55.671875 13.144531 55.824219 13.09375 55.957031 13.027344 C 56.09375 12.960938 56.214844 12.859375 56.316406 12.722656 L 56.671875 12.992188 C 56.636719 13.027344 56.605469 13.058594 56.535156 13.128906 C 56.484375 13.175781 56.398438 13.246094 56.316406 13.3125 C 56.214844 13.363281 56.09375 13.414062 55.957031 13.464844 C 55.824219 13.511719 55.652344 13.53125 55.484375 13.53125 C 55.226562 13.53125 55.007812 13.480469 54.804688 13.394531 C 54.617188 13.296875 54.449219 13.175781 54.292969 13.027344 C 54.160156 12.875 54.058594 12.691406 53.972656 12.507812 C 53.902344 12.320312 53.871094 12.121094 53.871094 11.917969 C 53.871094 11.683594 53.902344 11.464844 53.988281 11.265625 C 54.074219 11.0625 54.175781 10.878906 54.328125 10.742188 C 54.464844 10.59375 54.632812 10.476562 54.835938 10.390625 C 55.042969 10.308594 55.261719 10.273438 55.5 10.273438 C 55.703125 10.273438 55.90625 10.308594 56.113281 10.390625 C 56.316406 10.476562 56.46875 10.59375 56.605469 10.761719 Z M 56.246094 11.011719 " fill-opacity="1" fill-rule="nonzero"/><path fill="#000000" d="M 56.976562 12.40625 C 56.976562 12.253906 57.011719 12.121094 57.0625 11.984375 C 57.128906 11.851562 57.199219 11.734375 57.300781 11.648438 C 57.402344 11.550781 57.519531 11.464844 57.65625 11.414062 C 57.792969 11.347656 57.945312 11.3125 58.097656 11.3125 C 58.25 11.3125 58.402344 11.347656 58.539062 11.414062 C 58.675781 11.464844 58.792969 11.550781 58.894531 11.648438 C 58.996094 11.734375 59.066406 11.851562 59.132812 11.984375 C 59.183594 12.121094 59.21875 12.253906 59.21875 12.40625 C 59.21875 12.574219 59.183594 12.707031 59.132812 12.839844 C 59.066406 12.976562 58.996094 13.09375 58.894531 13.195312 C 58.792969 13.277344 58.675781 13.363281 58.539062 13.414062 C 58.402344 13.480469 58.25 13.496094 58.097656 13.496094 C 57.945312 13.496094 57.792969 13.480469 57.65625 13.414062 C 57.519531 13.363281 57.402344 13.277344 57.300781 13.195312 C 57.199219 13.09375 57.128906 12.976562 57.0625 12.839844 C 57.011719 12.707031 56.976562 12.574219 56.976562 12.40625 Z M 57.402344 12.40625 C 57.402344 12.523438 57.417969 12.625 57.453125 12.707031 C 57.488281 12.792969 57.539062 12.875 57.589844 12.925781 C 57.65625 12.992188 57.722656 13.042969 57.808594 13.078125 C 57.894531 13.109375 57.996094 13.144531 58.097656 13.144531 C 58.199219 13.144531 58.300781 13.109375 58.386719 13.078125 C 58.472656 13.042969 58.539062 12.992188 58.605469 12.925781 C 58.65625 12.875 58.707031 12.792969 58.742188 12.707031 C 58.777344 12.625 58.792969 12.523438 58.792969 12.40625 C 58.792969 12.304688 58.777344 12.203125 58.742188 12.121094 C 58.707031 12.035156 58.65625 11.953125 58.605469 11.902344 C 58.539062 11.835938 58.472656 11.785156 58.386719 11.75 C 58.300781 11.699219 58.199219 11.683594 58.097656 11.683594 C 57.996094 11.683594 57.894531 11.699219 57.808594 11.75 C 57.722656 11.785156 57.65625 11.835938 57.589844 11.902344 C 57.539062 11.953125 57.488281 12.035156 57.453125 12.121094 C 57.417969 12.203125 57.402344 12.304688 57.402344 12.40625 Z M 57.402344 12.40625 " fill-opacity="1" fill-rule="nonzero"/><path fill="#000000" d="M 61.816406 13.445312 L 61.425781 13.445312 L 61.425781 13.160156 L 61.410156 13.160156 C 61.339844 13.261719 61.222656 13.34375 61.085938 13.414062 C 60.96875 13.480469 60.8125 13.496094 60.679688 13.496094 C 60.527344 13.496094 60.371094 13.480469 60.238281 13.429688 C 60.101562 13.363281 60 13.296875 59.898438 13.195312 C 59.8125 13.09375 59.742188 12.976562 59.691406 12.839844 C 59.640625 12.707031 59.609375 12.574219 59.609375 12.40625 C 59.609375 12.253906 59.640625 12.121094 59.691406 11.984375 C 59.742188 11.851562 59.8125 11.734375 59.898438 11.632812 C 60 11.53125 60.101562 11.464844 60.238281 11.398438 C 60.371094 11.347656 60.527344 11.3125 60.679688 11.3125 C 60.832031 11.3125 60.96875 11.347656 61.101562 11.414062 C 61.238281 11.480469 61.339844 11.566406 61.410156 11.667969 L 61.425781 11.667969 L 61.425781 10.140625 L 61.816406 10.140625 Z M 60.730469 13.144531 C 60.832031 13.144531 60.933594 13.109375 61.019531 13.078125 C 61.101562 13.042969 61.171875 12.992188 61.238281 12.925781 C 61.289062 12.875 61.339844 12.792969 61.375 12.707031 C 61.410156 12.625 61.425781 12.523438 61.425781 12.40625 C 61.425781 12.304688 61.410156 12.203125 61.375 12.121094 C 61.339844 12.035156 61.289062 11.953125 61.238281 11.902344 C 61.171875 11.835938 61.101562 11.785156 61.019531 11.75 C 60.933594 11.699219 60.832031 11.683594 60.730469 11.683594 C 60.628906 11.683594 60.527344 11.699219 60.441406 11.75 C 60.355469 11.785156 60.289062 11.835938 60.21875 11.902344 C 60.167969 11.953125 60.117188 12.035156 60.085938 12.121094 C 60.050781 12.203125 60.035156 12.304688 60.035156 12.40625 C 60.035156 12.523438 60.050781 12.625 60.085938 12.707031 C 60.117188 12.792969 60.167969 12.875 60.21875 12.925781 C 60.289062 12.992188 60.355469 13.042969 60.441406 13.078125 C 60.527344 13.109375 60.628906 13.144531 60.730469 13.144531 Z M 60.730469 13.144531 " fill-opacity="1" fill-rule="nonzero"/><path fill="#000000" d="M 62.714844 12.558594 C 62.714844 12.640625 62.75 12.722656 62.78125 12.808594 C 62.816406 12.875 62.867188 12.941406 62.9375 12.992188 C 63.003906 13.042969 63.089844 13.09375 63.171875 13.128906 C 63.257812 13.144531 63.34375 13.160156 63.429688 13.160156 C 63.5625 13.160156 63.664062 13.128906 63.75 13.078125 C 63.851562 13.027344 63.9375 12.941406 64.003906 12.859375 L 64.3125 13.078125 C 64.089844 13.363281 63.785156 13.496094 63.378906 13.496094 C 63.207031 13.496094 63.070312 13.480469 62.9375 13.429688 C 62.800781 13.363281 62.679688 13.296875 62.578125 13.195312 C 62.496094 13.09375 62.425781 12.976562 62.375 12.839844 C 62.324219 12.707031 62.289062 12.574219 62.289062 12.40625 C 62.289062 12.253906 62.324219 12.121094 62.375 11.984375 C 62.425781 11.851562 62.511719 11.734375 62.613281 11.632812 C 62.699219 11.53125 62.816406 11.464844 62.953125 11.398438 C 63.089844 11.347656 63.222656 11.3125 63.378906 11.3125 C 63.5625 11.3125 63.734375 11.347656 63.851562 11.414062 C 63.988281 11.480469 64.089844 11.566406 64.175781 11.667969 C 64.261719 11.765625 64.3125 11.886719 64.34375 12.019531 C 64.394531 12.152344 64.414062 12.289062 64.414062 12.421875 L 64.414062 12.558594 Z M 63.988281 12.238281 C 63.972656 12.152344 63.972656 12.070312 63.9375 12.003906 C 63.921875 11.933594 63.871094 11.867188 63.820312 11.816406 C 63.769531 11.75 63.714844 11.71875 63.632812 11.683594 C 63.5625 11.648438 63.480469 11.632812 63.378906 11.632812 C 63.277344 11.632812 63.191406 11.648438 63.105469 11.699219 C 63.019531 11.734375 62.953125 11.785156 62.902344 11.835938 C 62.851562 11.886719 62.800781 11.953125 62.765625 12.035156 C 62.730469 12.101562 62.714844 12.171875 62.714844 12.238281 Z M 63.988281 12.238281 " fill-opacity="1" fill-rule="nonzero"/><path fill="#000000" d="M 66.316406 12.808594 C 66.382812 12.910156 66.484375 12.992188 66.601562 13.058594 C 66.722656 13.109375 66.859375 13.144531 66.976562 13.144531 C 67.042969 13.144531 67.128906 13.128906 67.195312 13.109375 C 67.265625 13.078125 67.332031 13.042969 67.402344 13.007812 C 67.453125 12.960938 67.503906 12.910156 67.535156 12.839844 C 67.585938 12.773438 67.605469 12.707031 67.605469 12.625 C 67.605469 12.507812 67.570312 12.40625 67.484375 12.339844 C 67.417969 12.289062 67.316406 12.238281 67.195312 12.1875 C 67.09375 12.136719 66.960938 12.101562 66.824219 12.070312 C 66.6875 12.019531 66.570312 11.96875 66.449219 11.902344 C 66.347656 11.835938 66.246094 11.734375 66.179688 11.617188 C 66.09375 11.5 66.058594 11.347656 66.058594 11.128906 C 66.058594 11.046875 66.078125 10.945312 66.109375 10.84375 C 66.160156 10.742188 66.210938 10.660156 66.296875 10.574219 C 66.382812 10.476562 66.5 10.40625 66.636719 10.359375 C 66.773438 10.289062 66.925781 10.273438 67.113281 10.273438 C 67.300781 10.273438 67.453125 10.289062 67.605469 10.339844 C 67.773438 10.390625 67.910156 10.476562 68.027344 10.625 L 67.671875 10.929688 C 67.621094 10.859375 67.554688 10.792969 67.453125 10.742188 C 67.351562 10.691406 67.25 10.660156 67.113281 10.660156 C 66.992188 10.660156 66.910156 10.675781 66.824219 10.710938 C 66.738281 10.742188 66.6875 10.777344 66.636719 10.828125 C 66.585938 10.878906 66.550781 10.929688 66.535156 10.980469 C 66.519531 11.046875 66.5 11.097656 66.5 11.128906 C 66.5 11.265625 66.550781 11.363281 66.621094 11.449219 C 66.703125 11.515625 66.789062 11.566406 66.910156 11.617188 C 67.027344 11.648438 67.144531 11.699219 67.28125 11.734375 C 67.417969 11.765625 67.535156 11.816406 67.65625 11.867188 C 67.773438 11.933594 67.859375 12.019531 67.945312 12.136719 C 68.011719 12.238281 68.046875 12.390625 68.046875 12.574219 C 68.046875 12.722656 68.027344 12.859375 67.960938 12.976562 C 67.910156 13.09375 67.824219 13.195312 67.742188 13.277344 C 67.636719 13.363281 67.519531 13.429688 67.382812 13.464844 C 67.265625 13.511719 67.113281 13.53125 66.960938 13.53125 C 66.753906 13.53125 66.570312 13.496094 66.398438 13.429688 C 66.210938 13.363281 66.078125 13.246094 65.957031 13.09375 Z M 66.316406 12.808594 " fill-opacity="1" fill-rule="nonzero"/><path fill="#000000" d="M 69.710938 11.71875 L 69.132812 11.71875 L 69.132812 12.65625 C 69.132812 12.722656 69.132812 12.773438 69.132812 12.824219 C 69.148438 12.890625 69.148438 12.941406 69.167969 12.992188 C 69.199219 13.027344 69.21875 13.058594 69.269531 13.09375 C 69.300781 13.128906 69.355469 13.144531 69.4375 13.144531 C 69.488281 13.144531 69.539062 13.128906 69.589844 13.128906 C 69.640625 13.109375 69.675781 13.09375 69.726562 13.078125 L 69.726562 13.429688 C 69.675781 13.464844 69.609375 13.480469 69.539062 13.496094 C 69.457031 13.496094 69.40625 13.496094 69.371094 13.496094 C 69.199219 13.496094 69.082031 13.480469 69.011719 13.445312 C 68.929688 13.394531 68.859375 13.34375 68.828125 13.277344 C 68.777344 13.210938 68.757812 13.128906 68.742188 13.042969 C 68.742188 12.960938 68.742188 12.875 68.742188 12.792969 L 68.742188 11.71875 L 68.285156 11.71875 L 68.285156 11.382812 L 68.742188 11.382812 L 68.742188 10.792969 L 69.132812 10.792969 L 69.132812 11.382812 L 69.710938 11.382812 Z M 69.710938 11.71875 " fill-opacity="1" fill-rule="nonzero"/><path fill="#000000" d="M 70.234375 11.632812 C 70.339844 11.53125 70.472656 11.449219 70.625 11.398438 C 70.761719 11.347656 70.914062 11.3125 71.066406 11.3125 C 71.222656 11.3125 71.355469 11.347656 71.457031 11.382812 C 71.578125 11.414062 71.664062 11.464844 71.730469 11.53125 C 71.796875 11.597656 71.867188 11.667969 71.898438 11.75 C 71.914062 11.835938 71.933594 11.917969 71.933594 12.019531 L 71.933594 13.078125 C 71.933594 13.144531 71.949219 13.210938 71.949219 13.277344 C 71.949219 13.34375 71.949219 13.394531 71.96875 13.445312 L 71.609375 13.445312 C 71.59375 13.34375 71.59375 13.246094 71.59375 13.144531 L 71.578125 13.144531 C 71.492188 13.277344 71.390625 13.363281 71.273438 13.429688 C 71.152344 13.480469 71 13.496094 70.847656 13.496094 C 70.746094 13.496094 70.660156 13.496094 70.574219 13.464844 C 70.472656 13.445312 70.40625 13.394531 70.339844 13.34375 C 70.269531 13.296875 70.21875 13.226562 70.183594 13.144531 C 70.132812 13.078125 70.117188 12.976562 70.117188 12.875 C 70.117188 12.742188 70.152344 12.640625 70.21875 12.539062 C 70.269531 12.457031 70.355469 12.371094 70.457031 12.320312 C 70.558594 12.269531 70.695312 12.222656 70.832031 12.203125 C 70.964844 12.171875 71.117188 12.171875 71.273438 12.171875 L 71.578125 12.171875 L 71.578125 12.070312 C 71.578125 12.019531 71.558594 11.96875 71.542969 11.917969 C 71.527344 11.867188 71.492188 11.816406 71.441406 11.765625 C 71.40625 11.734375 71.355469 11.699219 71.289062 11.667969 C 71.222656 11.648438 71.152344 11.632812 71.066406 11.632812 C 71 11.632812 70.933594 11.648438 70.863281 11.667969 C 70.8125 11.667969 70.761719 11.699219 70.710938 11.71875 C 70.660156 11.734375 70.625 11.765625 70.574219 11.785156 C 70.542969 11.816406 70.507812 11.851562 70.472656 11.867188 Z M 71.355469 12.457031 C 71.253906 12.457031 71.167969 12.457031 71.066406 12.472656 C 70.964844 12.472656 70.882812 12.507812 70.796875 12.523438 C 70.710938 12.558594 70.644531 12.589844 70.59375 12.65625 C 70.542969 12.707031 70.523438 12.773438 70.523438 12.859375 C 70.523438 12.976562 70.558594 13.058594 70.644531 13.109375 C 70.726562 13.160156 70.832031 13.195312 70.964844 13.195312 C 71.085938 13.195312 71.167969 13.175781 71.253906 13.128906 C 71.324219 13.09375 71.390625 13.042969 71.441406 12.992188 C 71.492188 12.925781 71.527344 12.875 71.542969 12.792969 C 71.558594 12.722656 71.578125 12.65625 71.578125 12.589844 L 71.578125 12.457031 Z M 71.355469 12.457031 " fill-opacity="1" fill-rule="nonzero"/><path fill="#000000" d="M 72.53125 11.382812 L 72.917969 11.382812 L 72.917969 11.699219 L 72.9375 11.699219 C 72.984375 11.582031 73.074219 11.5 73.1875 11.433594 C 73.308594 11.347656 73.460938 11.3125 73.613281 11.3125 C 73.71875 11.3125 73.820312 11.332031 73.921875 11.363281 C 74.007812 11.398438 74.089844 11.449219 74.15625 11.515625 C 74.226562 11.566406 74.273438 11.648438 74.328125 11.75 C 74.363281 11.851562 74.375 11.984375 74.375 12.121094 L 74.375 13.445312 L 73.988281 13.445312 L 73.988281 12.222656 C 73.988281 12.121094 73.96875 12.054688 73.933594 11.96875 C 73.921875 11.902344 73.886719 11.851562 73.832031 11.816406 C 73.804688 11.765625 73.75 11.734375 73.683594 11.71875 C 73.628906 11.699219 73.5625 11.683594 73.511719 11.683594 C 73.425781 11.683594 73.34375 11.699219 73.277344 11.734375 C 73.207031 11.75 73.140625 11.800781 73.085938 11.851562 C 73.039062 11.917969 73.003906 11.984375 72.964844 12.070312 C 72.9375 12.152344 72.917969 12.253906 72.917969 12.390625 L 72.917969 13.445312 L 72.53125 13.445312 Z M 72.53125 11.382812 " fill-opacity="1" fill-rule="nonzero"/><path fill="#000000" d="M 77.09375 13.445312 L 76.6875 13.445312 L 76.6875 13.160156 C 76.605469 13.261719 76.503906 13.34375 76.367188 13.414062 C 76.226562 13.480469 76.089844 13.496094 75.960938 13.496094 C 75.785156 13.496094 75.648438 13.480469 75.515625 13.429688 C 75.378906 13.363281 75.261719 13.296875 75.175781 13.195312 C 75.074219 13.09375 75.007812 12.976562 74.957031 12.839844 C 74.902344 12.707031 74.890625 12.574219 74.890625 12.40625 C 74.890625 12.253906 74.902344 12.121094 74.957031 11.984375 C 75.007812 11.851562 75.074219 11.734375 75.175781 11.632812 C 75.261719 11.53125 75.378906 11.464844 75.515625 11.398438 C 75.648438 11.347656 75.785156 11.3125 75.960938 11.3125 C 76.109375 11.3125 76.246094 11.347656 76.382812 11.414062 C 76.515625 11.480469 76.617188 11.566406 76.6875 11.667969 L 76.6875 10.140625 L 77.09375 10.140625 Z M 76.007812 13.144531 C 76.109375 13.144531 76.210938 13.109375 76.292969 13.078125 C 76.382812 13.042969 76.449219 12.992188 76.503906 12.925781 C 76.570312 12.875 76.617188 12.792969 76.632812 12.707031 C 76.671875 12.625 76.6875 12.523438 76.6875 12.40625 C 76.6875 12.304688 76.671875 12.203125 76.632812 12.121094 C 76.617188 12.035156 76.570312 11.953125 76.503906 11.902344 C 76.449219 11.835938 76.382812 11.785156 76.292969 11.75 C 76.210938 11.699219 76.109375 11.683594 76.007812 11.683594 C 75.886719 11.683594 75.804688 11.699219 75.71875 11.75 C 75.636719 11.785156 75.546875 11.835938 75.5 11.902344 C 75.433594 11.953125 75.398438 12.035156 75.363281 12.121094 C 75.328125 12.203125 75.3125 12.304688 75.3125 12.40625 C 75.3125 12.523438 75.328125 12.625 75.363281 12.707031 C 75.398438 12.792969 75.433594 12.875 75.5 12.925781 C 75.546875 12.992188 75.636719 13.042969 75.71875 13.078125 C 75.804688 13.109375 75.886719 13.144531 76.007812 13.144531 Z M 76.007812 13.144531 " fill-opacity="1" fill-rule="nonzero"/><path fill="#000000" d="M 77.703125 11.632812 C 77.824219 11.53125 77.941406 11.449219 78.097656 11.398438 C 78.246094 11.347656 78.386719 11.3125 78.539062 11.3125 C 78.6875 11.3125 78.828125 11.347656 78.929688 11.382812 C 79.046875 11.414062 79.132812 11.464844 79.195312 11.53125 C 79.285156 11.597656 79.335938 11.667969 79.371094 11.75 C 79.40625 11.835938 79.417969 11.917969 79.417969 12.019531 L 79.417969 13.078125 C 79.417969 13.144531 79.417969 13.210938 79.417969 13.277344 C 79.417969 13.34375 79.417969 13.394531 79.4375 13.445312 L 79.082031 13.445312 C 79.066406 13.34375 79.066406 13.246094 79.066406 13.144531 C 78.964844 13.277344 78.863281 13.363281 78.742188 13.429688 C 78.625 13.480469 78.488281 13.496094 78.320312 13.496094 C 78.21875 13.496094 78.128906 13.496094 78.042969 13.464844 C 77.960938 13.445312 77.878906 13.394531 77.804688 13.34375 C 77.738281 13.296875 77.691406 13.226562 77.65625 13.144531 C 77.621094 13.078125 77.585938 12.976562 77.585938 12.875 C 77.585938 12.742188 77.621094 12.640625 77.691406 12.539062 C 77.738281 12.457031 77.824219 12.371094 77.925781 12.320312 C 78.042969 12.269531 78.164062 12.222656 78.300781 12.203125 C 78.4375 12.171875 78.585938 12.171875 78.761719 12.171875 L 79.046875 12.171875 L 79.046875 12.070312 C 79.046875 12.019531 79.03125 11.96875 79.011719 11.917969 C 78.992188 11.867188 78.964844 11.816406 78.910156 11.765625 C 78.875 11.734375 78.828125 11.699219 78.761719 11.667969 C 78.707031 11.648438 78.625 11.632812 78.539062 11.632812 C 78.46875 11.632812 78.402344 11.648438 78.335938 11.667969 C 78.285156 11.667969 78.230469 11.699219 78.183594 11.71875 C 78.128906 11.734375 78.097656 11.765625 78.0625 11.785156 C 78.015625 11.816406 77.980469 11.851562 77.941406 11.867188 Z M 78.828125 12.457031 C 78.742188 12.457031 78.640625 12.457031 78.539062 12.472656 C 78.4375 12.472656 78.347656 12.507812 78.265625 12.523438 C 78.183594 12.558594 78.128906 12.589844 78.0625 12.65625 C 78.015625 12.707031 77.996094 12.773438 77.996094 12.859375 C 77.996094 12.976562 78.027344 13.058594 78.117188 13.109375 C 78.199219 13.160156 78.300781 13.195312 78.449219 13.195312 C 78.550781 13.195312 78.640625 13.175781 78.726562 13.128906 C 78.808594 13.09375 78.863281 13.042969 78.910156 12.992188 C 78.964844 12.925781 78.992188 12.875 79.011719 12.792969 C 79.03125 12.722656 79.046875 12.65625 79.046875 12.589844 L 79.046875 12.457031 Z M 78.828125 12.457031 " fill-opacity="1" fill-rule="nonzero"/><path fill="#000000" d="M 79.996094 11.382812 L 80.386719 11.382812 L 80.386719 11.699219 L 80.402344 11.699219 C 80.421875 11.632812 80.476562 11.582031 80.503906 11.550781 C 80.558594 11.5 80.605469 11.464844 80.660156 11.433594 C 80.707031 11.398438 80.78125 11.363281 80.847656 11.347656 C 80.898438 11.332031 80.964844 11.3125 81.03125 11.3125 C 81.101562 11.3125 81.152344 11.332031 81.203125 11.347656 L 81.1875 11.765625 C 81.152344 11.765625 81.132812 11.75 81.101562 11.75 C 81.066406 11.75 81.03125 11.75 81 11.75 C 80.796875 11.75 80.660156 11.800781 80.558594 11.902344 C 80.441406 12.019531 80.386719 12.1875 80.386719 12.40625 L 80.386719 13.445312 L 79.996094 13.445312 Z M 79.996094 11.382812 " fill-opacity="1" fill-rule="nonzero"/><path fill="#000000" d="M 46.433594 15.613281 L 47.539062 15.613281 C 47.742188 15.613281 47.910156 15.628906 48.03125 15.695312 C 48.167969 15.746094 48.269531 15.8125 48.335938 15.898438 C 48.421875 15.980469 48.472656 16.066406 48.503906 16.183594 C 48.523438 16.285156 48.539062 16.382812 48.539062 16.484375 C 48.539062 16.570312 48.523438 16.667969 48.503906 16.769531 C 48.472656 16.886719 48.421875 16.972656 48.335938 17.054688 C 48.269531 17.140625 48.167969 17.207031 48.03125 17.257812 C 47.910156 17.324219 47.742188 17.339844 47.539062 17.339844 L 46.859375 17.339844 L 46.859375 18.71875 L 46.433594 18.71875 Z M 46.859375 16.972656 L 47.417969 16.972656 C 47.503906 16.972656 47.589844 16.972656 47.65625 16.953125 C 47.742188 16.9375 47.808594 16.921875 47.878906 16.886719 C 47.945312 16.855469 47.996094 16.804688 48.03125 16.738281 C 48.0625 16.667969 48.097656 16.585938 48.097656 16.484375 C 48.097656 16.367188 48.0625 16.285156 48.03125 16.214844 C 47.996094 16.148438 47.945312 16.097656 47.878906 16.066406 C 47.808594 16.03125 47.742188 16.015625 47.65625 16 C 47.589844 15.980469 47.503906 15.980469 47.417969 15.980469 L 46.859375 15.980469 Z M 46.859375 16.972656 " fill-opacity="1" fill-rule="nonzero"/><path fill="#000000" d="M 49.269531 17.8125 C 49.269531 17.910156 49.285156 17.996094 49.320312 18.0625 C 49.355469 18.148438 49.40625 18.195312 49.472656 18.265625 C 49.542969 18.316406 49.625 18.347656 49.710938 18.382812 C 49.796875 18.414062 49.878906 18.414062 49.964844 18.414062 C 50.101562 18.414062 50.203125 18.398438 50.289062 18.332031 C 50.390625 18.28125 50.476562 18.195312 50.542969 18.113281 L 50.847656 18.332031 C 50.628906 18.617188 50.320312 18.769531 49.914062 18.769531 C 49.746094 18.769531 49.609375 18.734375 49.472656 18.683594 C 49.335938 18.632812 49.21875 18.550781 49.132812 18.449219 C 49.03125 18.347656 48.964844 18.230469 48.914062 18.097656 C 48.863281 17.980469 48.828125 17.828125 48.828125 17.675781 C 48.828125 17.527344 48.863281 17.375 48.914062 17.242188 C 48.964844 17.105469 49.050781 16.988281 49.152344 16.886719 C 49.234375 16.804688 49.355469 16.71875 49.488281 16.667969 C 49.625 16.601562 49.761719 16.585938 49.914062 16.585938 C 50.101562 16.585938 50.269531 16.621094 50.390625 16.6875 C 50.527344 16.738281 50.628906 16.820312 50.714844 16.9375 C 50.796875 17.039062 50.847656 17.15625 50.882812 17.273438 C 50.933594 17.40625 50.949219 17.542969 50.949219 17.675781 L 50.949219 17.8125 Z M 50.527344 17.507812 C 50.507812 17.40625 50.507812 17.339844 50.476562 17.257812 C 50.457031 17.191406 50.40625 17.121094 50.371094 17.074219 C 50.320312 17.023438 50.253906 16.972656 50.167969 16.9375 C 50.101562 16.90625 50.015625 16.90625 49.914062 16.90625 C 49.8125 16.90625 49.726562 16.921875 49.644531 16.953125 C 49.558594 16.988281 49.488281 17.039062 49.4375 17.089844 C 49.386719 17.15625 49.335938 17.222656 49.304688 17.289062 C 49.269531 17.359375 49.269531 17.425781 49.269531 17.507812 Z M 50.527344 17.507812 " fill-opacity="1" fill-rule="nonzero"/><path fill="#000000" d="M 51.425781 16.636719 L 51.800781 16.636719 L 51.800781 16.953125 C 51.816406 16.921875 51.832031 16.886719 51.867188 16.855469 C 51.917969 16.804688 51.953125 16.769531 52.019531 16.71875 C 52.070312 16.6875 52.140625 16.652344 52.222656 16.621094 C 52.292969 16.601562 52.375 16.585938 52.476562 16.585938 C 52.632812 16.585938 52.765625 16.621094 52.867188 16.6875 C 52.988281 16.738281 53.074219 16.835938 53.140625 16.972656 C 53.207031 16.835938 53.292969 16.738281 53.429688 16.6875 C 53.546875 16.621094 53.667969 16.585938 53.800781 16.585938 C 53.957031 16.585938 54.089844 16.601562 54.191406 16.652344 C 54.292969 16.71875 54.378906 16.789062 54.449219 16.871094 C 54.5 16.953125 54.550781 17.054688 54.566406 17.15625 C 54.582031 17.273438 54.601562 17.390625 54.601562 17.507812 L 54.601562 18.71875 L 54.191406 18.71875 L 54.191406 17.558594 C 54.191406 17.476562 54.191406 17.390625 54.175781 17.324219 C 54.175781 17.257812 54.160156 17.191406 54.125 17.140625 C 54.089844 17.074219 54.039062 17.039062 53.988281 17.003906 C 53.921875 16.972656 53.835938 16.953125 53.75 16.953125 C 53.546875 16.953125 53.410156 17.003906 53.328125 17.121094 C 53.257812 17.242188 53.207031 17.390625 53.207031 17.574219 L 53.207031 18.71875 L 52.816406 18.71875 L 52.816406 17.625 C 52.816406 17.527344 52.800781 17.441406 52.800781 17.359375 C 52.785156 17.273438 52.765625 17.207031 52.734375 17.140625 C 52.699219 17.074219 52.664062 17.039062 52.597656 17.003906 C 52.546875 16.972656 52.460938 16.953125 52.375 16.953125 C 52.292969 16.953125 52.222656 16.972656 52.15625 16.988281 C 52.089844 17.023438 52.035156 17.054688 51.984375 17.121094 C 51.933594 17.171875 51.902344 17.242188 51.867188 17.324219 C 51.832031 17.40625 51.816406 17.507812 51.816406 17.625 L 51.816406 18.71875 L 51.425781 18.71875 Z M 51.425781 16.636719 " fill-opacity="1" fill-rule="nonzero"/><path fill="#000000" d="M 55.195312 15.394531 L 55.601562 15.394531 L 55.601562 16.9375 C 55.6875 16.820312 55.789062 16.738281 55.90625 16.667969 C 56.042969 16.621094 56.195312 16.585938 56.332031 16.585938 C 56.5 16.585938 56.65625 16.601562 56.773438 16.667969 C 56.910156 16.71875 57.027344 16.804688 57.113281 16.886719 C 57.214844 16.988281 57.28125 17.105469 57.332031 17.242188 C 57.382812 17.375 57.402344 17.527344 57.402344 17.675781 C 57.402344 17.828125 57.382812 17.980469 57.332031 18.097656 C 57.28125 18.230469 57.214844 18.347656 57.113281 18.449219 C 57.027344 18.550781 56.910156 18.632812 56.773438 18.683594 C 56.65625 18.734375 56.5 18.769531 56.332031 18.769531 C 56.195312 18.769531 56.0625 18.734375 55.925781 18.667969 C 55.789062 18.617188 55.6875 18.53125 55.601562 18.414062 L 55.601562 18.71875 L 55.195312 18.71875 Z M 56.296875 18.398438 C 56.398438 18.398438 56.5 18.382812 56.585938 18.347656 C 56.671875 18.296875 56.738281 18.246094 56.789062 18.195312 C 56.859375 18.128906 56.910156 18.046875 56.925781 17.960938 C 56.960938 17.878906 56.976562 17.777344 56.976562 17.675781 C 56.976562 17.574219 56.960938 17.476562 56.925781 17.375 C 56.910156 17.289062 56.859375 17.222656 56.789062 17.15625 C 56.738281 17.089844 56.671875 17.039062 56.585938 17.003906 C 56.5 16.972656 56.398438 16.953125 56.296875 16.953125 C 56.179688 16.953125 56.09375 16.972656 56.007812 17.003906 C 55.925781 17.039062 55.839844 17.089844 55.789062 17.15625 C 55.722656 17.222656 55.6875 17.289062 55.652344 17.375 C 55.621094 17.476562 55.601562 17.574219 55.601562 17.675781 C 55.601562 17.777344 55.621094 17.878906 55.652344 17.960938 C 55.6875 18.046875 55.722656 18.128906 55.789062 18.195312 C 55.839844 18.246094 55.925781 18.296875 56.007812 18.347656 C 56.09375 18.382812 56.179688 18.398438 56.296875 18.398438 Z M 56.296875 18.398438 " fill-opacity="1" fill-rule="nonzero"/><path fill="#000000" d="M 57.910156 16.886719 C 58.03125 16.789062 58.164062 16.703125 58.300781 16.652344 C 58.453125 16.601562 58.605469 16.585938 58.757812 16.585938 C 58.914062 16.585938 59.03125 16.601562 59.148438 16.636719 C 59.25 16.667969 59.355469 16.71875 59.421875 16.789062 C 59.488281 16.855469 59.539062 16.9375 59.574219 17.003906 C 59.609375 17.089844 59.625 17.191406 59.625 17.273438 L 59.625 18.332031 C 59.625 18.414062 59.625 18.484375 59.625 18.53125 C 59.640625 18.601562 59.640625 18.652344 59.640625 18.71875 L 59.285156 18.71875 C 59.285156 18.601562 59.285156 18.5 59.285156 18.398438 L 59.269531 18.398438 C 59.183594 18.53125 59.082031 18.632812 58.964844 18.683594 C 58.828125 18.734375 58.691406 18.769531 58.539062 18.769531 C 58.4375 18.769531 58.335938 18.75 58.25 18.71875 C 58.164062 18.699219 58.082031 18.667969 58.03125 18.601562 C 57.960938 18.550781 57.910156 18.484375 57.859375 18.414062 C 57.824219 18.332031 57.808594 18.246094 57.808594 18.148438 C 57.808594 18.011719 57.84375 17.894531 57.894531 17.8125 C 57.960938 17.710938 58.046875 17.644531 58.148438 17.574219 C 58.25 17.527344 58.371094 17.492188 58.523438 17.457031 C 58.65625 17.441406 58.808594 17.425781 58.964844 17.425781 L 59.25 17.425781 L 59.25 17.339844 C 59.25 17.289062 59.25 17.222656 59.21875 17.171875 C 59.199219 17.121094 59.167969 17.074219 59.132812 17.039062 C 59.097656 16.988281 59.03125 16.953125 58.980469 16.9375 C 58.914062 16.90625 58.84375 16.90625 58.757812 16.90625 C 58.675781 16.90625 58.605469 16.90625 58.554688 16.921875 C 58.488281 16.9375 58.4375 16.953125 58.402344 16.972656 C 58.351562 16.988281 58.300781 17.023438 58.265625 17.054688 C 58.234375 17.074219 58.199219 17.105469 58.148438 17.140625 Z M 59.046875 17.710938 C 58.945312 17.710938 58.84375 17.710938 58.757812 17.726562 C 58.65625 17.742188 58.574219 17.761719 58.488281 17.792969 C 58.402344 17.8125 58.335938 17.863281 58.285156 17.910156 C 58.234375 17.960938 58.199219 18.03125 58.199219 18.113281 C 58.199219 18.230469 58.25 18.316406 58.335938 18.363281 C 58.402344 18.414062 58.523438 18.449219 58.65625 18.449219 C 58.757812 18.449219 58.863281 18.433594 58.929688 18.398438 C 59.015625 18.363281 59.082031 18.316406 59.117188 18.246094 C 59.167969 18.195312 59.199219 18.128906 59.21875 18.0625 C 59.25 17.980469 59.25 17.910156 59.25 17.84375 L 59.25 17.710938 Z M 59.046875 17.710938 " fill-opacity="1" fill-rule="nonzero"/><path fill="#000000" d="M 59.964844 16.636719 L 60.421875 16.636719 L 61.050781 18.265625 L 61.644531 16.636719 L 62.070312 16.636719 L 61.085938 19.152344 C 61.050781 19.253906 61 19.339844 60.96875 19.40625 C 60.933594 19.472656 60.882812 19.539062 60.832031 19.589844 C 60.78125 19.65625 60.710938 19.691406 60.644531 19.726562 C 60.558594 19.742188 60.472656 19.757812 60.355469 19.757812 C 60.304688 19.757812 60.238281 19.757812 60.1875 19.757812 C 60.117188 19.742188 60.066406 19.726562 60.015625 19.707031 L 60.066406 19.355469 C 60.136719 19.371094 60.21875 19.390625 60.304688 19.390625 C 60.355469 19.390625 60.40625 19.390625 60.457031 19.371094 C 60.492188 19.355469 60.527344 19.339844 60.558594 19.304688 C 60.59375 19.273438 60.628906 19.238281 60.644531 19.1875 C 60.660156 19.152344 60.679688 19.105469 60.695312 19.054688 L 60.832031 18.71875 Z M 59.964844 16.636719 " fill-opacity="1" fill-rule="nonzero"/><path fill="#000000" d="M 62.425781 16.886719 C 62.546875 16.789062 62.679688 16.703125 62.816406 16.652344 C 62.96875 16.601562 63.121094 16.585938 63.277344 16.585938 C 63.429688 16.585938 63.546875 16.601562 63.664062 16.636719 C 63.769531 16.667969 63.871094 16.71875 63.9375 16.789062 C 64.003906 16.855469 64.054688 16.9375 64.089844 17.003906 C 64.125 17.089844 64.140625 17.191406 64.140625 17.273438 L 64.140625 18.332031 C 64.140625 18.414062 64.140625 18.484375 64.15625 18.53125 C 64.15625 18.601562 64.15625 18.652344 64.15625 18.71875 L 63.800781 18.71875 C 63.800781 18.601562 63.800781 18.5 63.800781 18.398438 L 63.785156 18.398438 C 63.699219 18.53125 63.597656 18.632812 63.480469 18.683594 C 63.34375 18.734375 63.207031 18.769531 63.054688 18.769531 C 62.953125 18.769531 62.851562 18.75 62.765625 18.71875 C 62.679688 18.699219 62.613281 18.667969 62.546875 18.601562 C 62.476562 18.550781 62.425781 18.484375 62.375 18.414062 C 62.34375 18.332031 62.324219 18.246094 62.324219 18.148438 C 62.324219 18.011719 62.359375 17.894531 62.410156 17.8125 C 62.476562 17.710938 62.5625 17.644531 62.664062 17.574219 C 62.765625 17.527344 62.886719 17.492188 63.039062 17.457031 C 63.171875 17.441406 63.328125 17.425781 63.480469 17.425781 L 63.769531 17.425781 L 63.769531 17.339844 C 63.769531 17.289062 63.769531 17.222656 63.734375 17.171875 C 63.714844 17.121094 63.683594 17.074219 63.648438 17.039062 C 63.613281 16.988281 63.546875 16.953125 63.496094 16.9375 C 63.429688 16.90625 63.359375 16.90625 63.277344 16.90625 C 63.191406 16.90625 63.121094 16.90625 63.070312 16.921875 C 63.019531 16.9375 62.953125 16.953125 62.917969 16.972656 C 62.867188 16.988281 62.816406 17.023438 62.78125 17.054688 C 62.75 17.074219 62.714844 17.105469 62.679688 17.140625 Z M 63.5625 17.710938 C 63.460938 17.710938 63.359375 17.710938 63.277344 17.726562 C 63.171875 17.742188 63.089844 17.761719 63.003906 17.792969 C 62.917969 17.8125 62.851562 17.863281 62.800781 17.910156 C 62.75 17.960938 62.714844 18.03125 62.714844 18.113281 C 62.714844 18.230469 62.765625 18.316406 62.851562 18.363281 C 62.917969 18.414062 63.039062 18.449219 63.171875 18.449219 C 63.292969 18.449219 63.378906 18.433594 63.460938 18.398438 C 63.53125 18.363281 63.597656 18.316406 63.632812 18.246094 C 63.683594 18.195312 63.714844 18.128906 63.734375 18.0625 C 63.769531 17.980469 63.769531 17.910156 63.769531 17.84375 L 63.769531 17.710938 Z M 63.5625 17.710938 " fill-opacity="1" fill-rule="nonzero"/><path fill="#000000" d="M 64.71875 16.636719 L 65.125 16.636719 L 65.125 16.953125 C 65.160156 16.90625 65.195312 16.855469 65.246094 16.804688 C 65.277344 16.753906 65.328125 16.71875 65.382812 16.6875 C 65.449219 16.652344 65.5 16.636719 65.566406 16.601562 C 65.636719 16.585938 65.703125 16.585938 65.769531 16.585938 C 65.820312 16.585938 65.890625 16.585938 65.941406 16.601562 L 65.925781 17.039062 C 65.890625 17.023438 65.855469 17.023438 65.820312 17.003906 C 65.789062 17.003906 65.753906 17.003906 65.71875 17.003906 C 65.535156 17.003906 65.382812 17.054688 65.277344 17.15625 C 65.175781 17.273438 65.125 17.441406 65.125 17.675781 L 65.125 18.71875 L 64.71875 18.71875 Z M 64.71875 16.636719 " fill-opacity="1" fill-rule="nonzero"/><path fill="#000000" d="M 66.382812 16.886719 C 66.484375 16.789062 66.621094 16.703125 66.773438 16.652344 C 66.910156 16.601562 67.0625 16.585938 67.214844 16.585938 C 67.367188 16.585938 67.484375 16.601562 67.605469 16.636719 C 67.722656 16.667969 67.808594 16.71875 67.875 16.789062 C 67.945312 16.855469 67.996094 16.9375 68.027344 17.003906 C 68.0625 17.089844 68.078125 17.191406 68.078125 17.273438 L 68.078125 18.332031 C 68.078125 18.414062 68.078125 18.484375 68.097656 18.53125 C 68.097656 18.601562 68.097656 18.652344 68.097656 18.71875 L 67.757812 18.71875 C 67.742188 18.601562 67.742188 18.5 67.742188 18.398438 L 67.722656 18.398438 C 67.636719 18.53125 67.535156 18.632812 67.417969 18.683594 C 67.300781 18.734375 67.144531 18.769531 66.992188 18.769531 C 66.890625 18.769531 66.808594 18.75 66.703125 18.71875 C 66.621094 18.699219 66.550781 18.667969 66.484375 18.601562 C 66.417969 18.550781 66.367188 18.484375 66.316406 18.414062 C 66.28125 18.332031 66.261719 18.246094 66.261719 18.148438 C 66.261719 18.011719 66.296875 17.894531 66.347656 17.8125 C 66.417969 17.710938 66.5 17.644531 66.601562 17.574219 C 66.703125 17.527344 66.824219 17.492188 66.976562 17.457031 C 67.113281 17.441406 67.265625 17.425781 67.417969 17.425781 L 67.707031 17.425781 L 67.707031 17.339844 C 67.707031 17.289062 67.707031 17.222656 67.691406 17.171875 C 67.65625 17.121094 67.636719 17.074219 67.585938 17.039062 C 67.554688 16.988281 67.503906 16.953125 67.433594 16.9375 C 67.367188 16.90625 67.300781 16.90625 67.214844 16.90625 C 67.128906 16.90625 67.0625 16.90625 67.011719 16.921875 C 66.960938 16.9375 66.910156 16.953125 66.859375 16.972656 C 66.808594 16.988281 66.753906 17.023438 66.722656 17.054688 C 66.6875 17.074219 66.652344 17.105469 66.621094 17.140625 Z M 67.503906 17.710938 C 67.402344 17.710938 67.316406 17.710938 67.214844 17.726562 C 67.113281 17.742188 67.027344 17.761719 66.941406 17.792969 C 66.859375 17.8125 66.789062 17.863281 66.738281 17.910156 C 66.6875 17.960938 66.671875 18.03125 66.671875 18.113281 C 66.671875 18.230469 66.703125 18.316406 66.789062 18.363281 C 66.875 18.414062 66.976562 18.449219 67.113281 18.449219 C 67.230469 18.449219 67.316406 18.433594 67.402344 18.398438 C 67.46875 18.363281 67.535156 18.316406 67.585938 18.246094 C 67.621094 18.195312 67.65625 18.128906 67.691406 18.0625 C 67.707031 17.980469 67.707031 17.910156 67.707031 17.84375 L 67.707031 17.710938 Z M 67.503906 17.710938 " fill-opacity="1" fill-rule="nonzero"/><path fill="#000000" d="M 68.675781 16.636719 L 69.0625 16.636719 L 69.0625 16.953125 L 69.082031 16.953125 C 69.132812 16.835938 69.21875 16.753906 69.335938 16.6875 C 69.457031 16.621094 69.609375 16.585938 69.761719 16.585938 C 69.863281 16.585938 69.964844 16.601562 70.050781 16.621094 C 70.152344 16.652344 70.234375 16.703125 70.304688 16.769531 C 70.371094 16.835938 70.421875 16.921875 70.472656 17.023438 C 70.507812 17.121094 70.523438 17.242188 70.523438 17.375 L 70.523438 18.71875 L 70.132812 18.71875 L 70.132812 17.492188 C 70.132812 17.390625 70.117188 17.308594 70.082031 17.242188 C 70.066406 17.171875 70.03125 17.105469 69.980469 17.074219 C 69.929688 17.023438 69.878906 17.003906 69.828125 16.972656 C 69.777344 16.953125 69.710938 16.953125 69.660156 16.953125 C 69.574219 16.953125 69.488281 16.953125 69.421875 16.988281 C 69.355469 17.023438 69.285156 17.054688 69.234375 17.105469 C 69.183594 17.171875 69.132812 17.242188 69.117188 17.324219 C 69.082031 17.425781 69.0625 17.527344 69.0625 17.644531 L 69.0625 18.71875 L 68.675781 18.71875 Z M 68.675781 16.636719 " fill-opacity="1" fill-rule="nonzero"/><path fill="#000000" d="M 72.457031 15.613281 L 73.019531 15.613281 L 74.753906 18.164062 L 74.769531 18.164062 L 74.769531 15.613281 L 75.195312 15.613281 L 75.195312 18.71875 L 74.652344 18.71875 L 72.902344 16.164062 L 72.882812 16.164062 L 72.882812 18.71875 L 72.457031 18.71875 Z M 72.457031 15.613281 " fill-opacity="1" fill-rule="nonzero"/><path fill="#000000" d="M 75.90625 16.886719 C 76.007812 16.789062 76.144531 16.703125 76.292969 16.652344 C 76.429688 16.601562 76.585938 16.585938 76.734375 16.585938 C 76.890625 16.585938 77.027344 16.601562 77.128906 16.636719 C 77.25 16.667969 77.332031 16.71875 77.398438 16.789062 C 77.472656 16.855469 77.519531 16.9375 77.554688 17.003906 C 77.585938 17.089844 77.601562 17.191406 77.601562 17.273438 L 77.601562 18.332031 C 77.601562 18.414062 77.601562 18.484375 77.621094 18.53125 C 77.621094 18.601562 77.621094 18.652344 77.621094 18.71875 L 77.28125 18.71875 C 77.261719 18.601562 77.261719 18.5 77.261719 18.398438 L 77.25 18.398438 C 77.160156 18.53125 77.058594 18.632812 76.9375 18.683594 C 76.824219 18.734375 76.671875 18.769531 76.515625 18.769531 C 76.414062 18.769531 76.328125 18.75 76.226562 18.71875 C 76.144531 18.699219 76.078125 18.667969 76.007812 18.601562 C 75.941406 18.550781 75.886719 18.484375 75.859375 18.414062 C 75.804688 18.332031 75.785156 18.246094 75.785156 18.148438 C 75.785156 18.011719 75.820312 17.894531 75.871094 17.8125 C 75.941406 17.710938 76.023438 17.644531 76.125 17.574219 C 76.226562 17.527344 76.347656 17.492188 76.503906 17.457031 C 76.632812 17.441406 76.789062 17.425781 76.9375 17.425781 L 77.230469 17.425781 L 77.230469 17.339844 C 77.230469 17.289062 77.230469 17.222656 77.214844 17.171875 C 77.179688 17.121094 77.160156 17.074219 77.113281 17.039062 C 77.078125 16.988281 77.027344 16.953125 76.957031 16.9375 C 76.890625 16.90625 76.824219 16.90625 76.734375 16.90625 C 76.652344 16.90625 76.605469 16.90625 76.53125 16.921875 C 76.484375 16.9375 76.429688 16.953125 76.382812 16.972656 C 76.328125 16.988281 76.292969 17.023438 76.246094 17.054688 C 76.210938 17.074219 76.179688 17.105469 76.144531 17.140625 Z M 77.027344 17.710938 C 76.925781 17.710938 76.835938 17.710938 76.734375 17.726562 C 76.632812 17.742188 76.550781 17.761719 76.46875 17.792969 C 76.382812 17.8125 76.3125 17.863281 76.265625 17.910156 C 76.210938 17.960938 76.191406 18.03125 76.191406 18.113281 C 76.191406 18.230469 76.226562 18.316406 76.3125 18.363281 C 76.402344 18.414062 76.503906 18.449219 76.632812 18.449219 C 76.753906 18.449219 76.835938 18.433594 76.925781 18.398438 C 76.992188 18.363281 77.058594 18.316406 77.113281 18.246094 C 77.148438 18.195312 77.179688 18.128906 77.214844 18.0625 C 77.230469 17.980469 77.230469 17.910156 77.230469 17.84375 L 77.230469 17.710938 Z M 77.027344 17.710938 " fill-opacity="1" fill-rule="nonzero"/><path fill="#000000" d="M 79.304688 17.15625 C 79.269531 17.089844 79.195312 17.054688 79.132812 17.003906 C 79.066406 16.972656 78.980469 16.953125 78.875 16.953125 C 78.789062 16.953125 78.707031 16.972656 78.640625 17.003906 C 78.570312 17.054688 78.523438 17.105469 78.523438 17.191406 C 78.523438 17.242188 78.550781 17.289062 78.585938 17.324219 C 78.625 17.375 78.671875 17.390625 78.726562 17.425781 C 78.789062 17.441406 78.84375 17.457031 78.910156 17.476562 C 78.964844 17.492188 79.011719 17.492188 79.066406 17.507812 C 79.148438 17.527344 79.234375 17.558594 79.304688 17.574219 C 79.386719 17.609375 79.453125 17.644531 79.507812 17.695312 C 79.554688 17.742188 79.609375 17.792969 79.621094 17.863281 C 79.65625 17.929688 79.675781 18.011719 79.675781 18.113281 C 79.675781 18.230469 79.65625 18.332031 79.609375 18.414062 C 79.554688 18.5 79.488281 18.566406 79.40625 18.617188 C 79.335938 18.667969 79.234375 18.699219 79.132812 18.734375 C 79.03125 18.75 78.929688 18.769531 78.828125 18.769531 C 78.660156 18.769531 78.503906 18.734375 78.367188 18.683594 C 78.230469 18.632812 78.117188 18.53125 78.015625 18.398438 L 78.320312 18.148438 C 78.386719 18.214844 78.449219 18.265625 78.539062 18.316406 C 78.605469 18.363281 78.707031 18.398438 78.828125 18.398438 C 78.875 18.398438 78.929688 18.398438 78.980469 18.382812 C 79.03125 18.363281 79.082031 18.347656 79.113281 18.332031 C 79.148438 18.316406 79.183594 18.28125 79.214844 18.246094 C 79.234375 18.214844 79.25 18.179688 79.25 18.128906 C 79.25 18.078125 79.234375 18.03125 79.195312 17.996094 C 79.167969 17.945312 79.113281 17.929688 79.066406 17.894531 C 79.011719 17.878906 78.964844 17.863281 78.890625 17.84375 C 78.84375 17.828125 78.789062 17.828125 78.742188 17.8125 C 78.660156 17.792969 78.570312 17.777344 78.503906 17.742188 C 78.421875 17.710938 78.347656 17.675781 78.300781 17.644531 C 78.230469 17.59375 78.199219 17.542969 78.164062 17.476562 C 78.117188 17.40625 78.097656 17.324219 78.097656 17.222656 C 78.097656 17.105469 78.128906 17.023438 78.164062 16.9375 C 78.21875 16.855469 78.285156 16.789062 78.347656 16.738281 C 78.4375 16.6875 78.523438 16.652344 78.605469 16.621094 C 78.707031 16.601562 78.808594 16.585938 78.890625 16.585938 C 79.046875 16.585938 79.183594 16.601562 79.304688 16.652344 C 79.4375 16.71875 79.539062 16.804688 79.621094 16.921875 Z M 79.304688 17.15625 " fill-opacity="1" fill-rule="nonzero"/><path fill="#000000" d="M 80.097656 15.898438 C 80.097656 15.8125 80.136719 15.746094 80.183594 15.679688 C 80.238281 15.628906 80.300781 15.59375 80.386719 15.59375 C 80.476562 15.59375 80.542969 15.628906 80.589844 15.679688 C 80.660156 15.746094 80.679688 15.8125 80.679688 15.898438 C 80.679688 15.964844 80.660156 16.03125 80.589844 16.097656 C 80.542969 16.148438 80.476562 16.183594 80.386719 16.183594 C 80.300781 16.183594 80.238281 16.148438 80.183594 16.097656 C 80.136719 16.03125 80.097656 15.964844 80.097656 15.898438 Z M 80.183594 16.636719 L 80.589844 16.636719 L 80.589844 18.71875 L 80.183594 18.71875 Z M 80.183594 16.636719 " fill-opacity="1" fill-rule="nonzero"/><path fill="#000000" d="M 81.121094 17.675781 C 81.121094 17.527344 81.152344 17.375 81.203125 17.242188 C 81.269531 17.121094 81.34375 17.003906 81.445312 16.90625 C 81.542969 16.804688 81.664062 16.71875 81.796875 16.667969 C 81.933594 16.601562 82.089844 16.585938 82.238281 16.585938 C 82.394531 16.585938 82.542969 16.601562 82.679688 16.667969 C 82.816406 16.71875 82.9375 16.804688 83.039062 16.90625 C 83.140625 17.003906 83.207031 17.121094 83.277344 17.242188 C 83.324219 17.375 83.359375 17.527344 83.359375 17.675781 C 83.359375 17.828125 83.324219 17.960938 83.277344 18.097656 C 83.207031 18.230469 83.140625 18.347656 83.039062 18.449219 C 82.9375 18.550781 82.816406 18.617188 82.679688 18.683594 C 82.542969 18.734375 82.394531 18.769531 82.238281 18.769531 C 82.089844 18.769531 81.933594 18.734375 81.796875 18.683594 C 81.664062 18.617188 81.542969 18.550781 81.445312 18.449219 C 81.34375 18.347656 81.269531 18.230469 81.203125 18.097656 C 81.152344 17.960938 81.121094 17.828125 81.121094 17.675781 Z M 81.542969 17.675781 C 81.542969 17.777344 81.558594 17.878906 81.59375 17.960938 C 81.628906 18.046875 81.675781 18.128906 81.730469 18.195312 C 81.796875 18.246094 81.867188 18.296875 81.949219 18.347656 C 82.035156 18.382812 82.136719 18.398438 82.238281 18.398438 C 82.339844 18.398438 82.441406 18.382812 82.523438 18.347656 C 82.613281 18.296875 82.679688 18.246094 82.746094 18.195312 C 82.800781 18.128906 82.847656 18.046875 82.882812 17.960938 C 82.917969 17.878906 82.9375 17.777344 82.9375 17.675781 C 82.9375 17.574219 82.917969 17.476562 82.882812 17.375 C 82.847656 17.289062 82.800781 17.222656 82.746094 17.15625 C 82.679688 17.089844 82.613281 17.039062 82.523438 17.003906 C 82.441406 16.972656 82.339844 16.953125 82.238281 16.953125 C 82.136719 16.953125 82.035156 16.972656 81.949219 17.003906 C 81.867188 17.039062 81.796875 17.089844 81.730469 17.15625 C 81.675781 17.222656 81.628906 17.289062 81.59375 17.375 C 81.558594 17.476562 81.542969 17.574219 81.542969 17.675781 Z M 81.542969 17.675781 " fill-opacity="1" fill-rule="nonzero"/><path fill="#000000" d="M 83.851562 16.636719 L 84.257812 16.636719 L 84.257812 16.953125 C 84.3125 16.835938 84.394531 16.753906 84.53125 16.6875 C 84.652344 16.621094 84.78125 16.585938 84.957031 16.585938 C 85.058594 16.585938 85.160156 16.601562 85.242188 16.621094 C 85.34375 16.652344 85.414062 16.703125 85.5 16.769531 C 85.566406 16.835938 85.617188 16.921875 85.648438 17.023438 C 85.703125 17.121094 85.71875 17.242188 85.71875 17.375 L 85.71875 18.71875 L 85.3125 18.71875 L 85.3125 17.492188 C 85.3125 17.390625 85.3125 17.308594 85.277344 17.242188 C 85.261719 17.171875 85.207031 17.105469 85.175781 17.074219 C 85.125 17.023438 85.074219 17.003906 85.023438 16.972656 C 84.957031 16.953125 84.902344 16.953125 84.835938 16.953125 C 84.753906 16.953125 84.679688 16.953125 84.617188 16.988281 C 84.550781 17.023438 84.476562 17.054688 84.429688 17.105469 C 84.375 17.171875 84.328125 17.242188 84.292969 17.324219 C 84.273438 17.425781 84.257812 17.527344 84.257812 17.644531 L 84.257812 18.71875 L 83.851562 18.71875 Z M 83.851562 16.636719 " fill-opacity="1" fill-rule="nonzero"/><path fill="#000000" d="M 86.328125 16.886719 C 86.449219 16.789062 86.570312 16.703125 86.71875 16.652344 C 86.875 16.601562 87.011719 16.585938 87.160156 16.585938 C 87.316406 16.585938 87.453125 16.601562 87.554688 16.636719 C 87.675781 16.667969 87.757812 16.71875 87.839844 16.789062 C 87.90625 16.855469 87.960938 16.9375 87.996094 17.003906 C 88.027344 17.089844 88.042969 17.191406 88.042969 17.273438 L 88.042969 18.332031 C 88.042969 18.414062 88.042969 18.484375 88.042969 18.53125 C 88.042969 18.601562 88.042969 18.652344 88.0625 18.71875 L 87.703125 18.71875 C 87.6875 18.601562 87.6875 18.5 87.6875 18.398438 C 87.585938 18.53125 87.484375 18.632812 87.363281 18.683594 C 87.25 18.734375 87.113281 18.769531 86.9375 18.769531 C 86.855469 18.769531 86.753906 18.75 86.671875 18.71875 C 86.585938 18.699219 86.496094 18.667969 86.429688 18.601562 C 86.367188 18.550781 86.3125 18.484375 86.28125 18.414062 C 86.246094 18.332031 86.210938 18.246094 86.210938 18.148438 C 86.210938 18.011719 86.246094 17.894531 86.3125 17.8125 C 86.367188 17.710938 86.449219 17.644531 86.550781 17.574219 C 86.671875 17.527344 86.789062 17.492188 86.925781 17.457031 C 87.058594 17.441406 87.214844 17.425781 87.382812 17.425781 L 87.675781 17.425781 L 87.675781 17.339844 C 87.675781 17.289062 87.65625 17.222656 87.636719 17.171875 C 87.621094 17.121094 87.585938 17.074219 87.554688 17.039062 C 87.5 16.988281 87.453125 16.953125 87.382812 16.9375 C 87.332031 16.90625 87.25 16.90625 87.160156 16.90625 C 87.09375 16.90625 87.027344 16.90625 86.957031 16.921875 C 86.910156 16.9375 86.855469 16.953125 86.808594 16.972656 C 86.753906 16.988281 86.71875 17.023438 86.6875 17.054688 C 86.632812 17.074219 86.605469 17.105469 86.570312 17.140625 Z M 87.453125 17.710938 C 87.363281 17.710938 87.261719 17.710938 87.160156 17.726562 C 87.058594 17.742188 86.976562 17.761719 86.890625 17.792969 C 86.808594 17.8125 86.753906 17.863281 86.707031 17.910156 C 86.632812 17.960938 86.617188 18.03125 86.617188 18.113281 C 86.617188 18.230469 86.652344 18.316406 86.734375 18.363281 C 86.820312 18.414062 86.925781 18.449219 87.078125 18.449219 C 87.179688 18.449219 87.28125 18.433594 87.351562 18.398438 C 87.433594 18.363281 87.484375 18.316406 87.535156 18.246094 C 87.585938 18.195312 87.621094 18.128906 87.636719 18.0625 C 87.65625 17.980469 87.675781 17.910156 87.675781 17.84375 L 87.675781 17.710938 Z M 87.453125 17.710938 " fill-opacity="1" fill-rule="nonzero"/><path fill="#000000" d="M 88.652344 18.71875 L 89.042969 18.71875 L 89.042969 15.394531 L 88.652344 15.394531 Z M 88.652344 18.71875 " fill-opacity="1" fill-rule="nonzero"/></svg>