<svg xmlns="http://www.w3.org/2000/svg" xmlns:xlink="http://www.w3.org/1999/xlink" width="162" zoomAndPan="magnify" viewBox="0 0 121.5 30.000001" height="40" preserveAspectRatio="xMidYMid meet" version="1.0"><defs><clipPath id="6c08139ca2"><path d="M 15 5.226562 L 106.351562 5.226562 L 106.351562 24.097656 L 15 24.097656 Z M 15 5.226562 " clip-rule="nonzero"/></clipPath></defs><g clip-path="url(#6c08139ca2)"><path fill="#ffffff" d="M 15.125 5.226562 L 106.125 5.226562 L 106.125 24.101562 L 15.125 24.101562 Z M 15.125 5.226562 " fill-opacity="0.01" fill-rule="evenodd"/></g><path fill="#00aed6" d="M 34.800781 14.664062 C 34.800781 15.195312 34.738281 15.722656 34.613281 16.242188 C 34.484375 16.765625 34.300781 17.269531 34.050781 17.761719 C 33.804688 18.25 33.503906 18.71875 33.144531 19.160156 C 32.785156 19.601562 32.375 20.007812 31.917969 20.382812 C 31.464844 20.761719 30.964844 21.09375 30.429688 21.390625 C 29.890625 21.683594 29.324219 21.933594 28.726562 22.136719 C 28.132812 22.339844 27.515625 22.496094 26.882812 22.597656 C 26.25 22.703125 25.609375 22.753906 24.964844 22.753906 C 24.316406 22.753906 23.675781 22.703125 23.042969 22.597656 C 22.410156 22.496094 21.796875 22.339844 21.199219 22.136719 C 20.601562 21.933594 20.035156 21.683594 19.496094 21.390625 C 18.960938 21.09375 18.464844 20.761719 18.007812 20.382812 C 17.550781 20.007812 17.140625 19.601562 16.78125 19.160156 C 16.425781 18.71875 16.121094 18.25 15.875 17.761719 C 15.625 17.269531 15.441406 16.765625 15.3125 16.242188 C 15.1875 15.722656 15.125 15.195312 15.125 14.664062 C 15.125 14.132812 15.1875 13.609375 15.3125 13.085938 C 15.441406 12.566406 15.625 12.058594 15.875 11.570312 C 16.121094 11.078125 16.425781 10.613281 16.78125 10.171875 C 17.140625 9.730469 17.550781 9.320312 18.007812 8.945312 C 18.464844 8.570312 18.960938 8.234375 19.496094 7.941406 C 20.035156 7.644531 20.601562 7.394531 21.199219 7.191406 C 21.796875 6.988281 22.410156 6.835938 23.042969 6.730469 C 23.675781 6.628906 24.316406 6.578125 24.964844 6.578125 C 25.609375 6.578125 26.25 6.628906 26.882812 6.730469 C 27.515625 6.835938 28.132812 6.988281 28.726562 7.191406 C 29.324219 7.394531 29.890625 7.644531 30.429688 7.941406 C 30.964844 8.234375 31.464844 8.570312 31.917969 8.945312 C 32.375 9.320312 32.785156 9.730469 33.144531 10.171875 C 33.503906 10.613281 33.804688 11.078125 34.050781 11.570312 C 34.300781 12.058594 34.484375 12.566406 34.613281 13.085938 C 34.738281 13.609375 34.800781 14.132812 34.800781 14.664062 Z M 34.800781 14.664062 " fill-opacity="1" fill-rule="nonzero"/><path fill="#ffffff" d="M 30.695312 14.414062 C 30.679688 14.167969 30.605469 13.933594 30.476562 13.710938 C 30.347656 13.488281 30.171875 13.292969 29.949219 13.128906 C 29.726562 12.964844 29.472656 12.839844 29.1875 12.753906 C 28.902344 12.671875 28.613281 12.632812 28.308594 12.644531 L 22.097656 12.644531 C 21.980469 12.644531 21.886719 12.609375 21.804688 12.546875 C 21.726562 12.480469 21.683594 12.398438 21.6875 12.308594 C 21.6875 12.121094 21.871094 11.96875 22.097656 11.96875 L 28.390625 11.96875 C 28.375 11.621094 28.234375 11.308594 27.972656 11.035156 C 27.707031 10.761719 27.371094 10.578125 26.957031 10.484375 C 25.109375 10.214844 23.261719 10.214844 21.410156 10.484375 C 20.886719 10.589844 20.449219 10.808594 20.089844 11.136719 C 19.730469 11.464844 19.515625 11.847656 19.445312 12.285156 C 19.152344 13.878906 19.152344 15.476562 19.445312 17.074219 C 19.554688 17.53125 19.8125 17.929688 20.222656 18.257812 C 20.632812 18.585938 21.121094 18.792969 21.6875 18.871094 C 23.972656 19.105469 26.257812 19.105469 28.542969 18.871094 C 29.050781 18.785156 29.480469 18.585938 29.832031 18.273438 C 30.179688 17.960938 30.386719 17.59375 30.445312 17.175781 C 30.648438 16.261719 30.734375 15.339844 30.695312 14.414062 Z M 28.65625 15.546875 L 28.65625 15.847656 C 28.65625 15.9375 28.617188 16.019531 28.535156 16.082031 C 28.457031 16.148438 28.359375 16.183594 28.246094 16.183594 C 28.132812 16.183594 28.035156 16.148438 27.953125 16.082031 C 27.875 16.019531 27.835938 15.9375 27.835938 15.847656 L 27.835938 15.546875 C 27.621094 15.390625 27.566406 15.207031 27.667969 14.992188 C 27.769531 14.773438 27.960938 14.667969 28.246094 14.667969 C 28.527344 14.667969 28.722656 14.773438 28.820312 14.992188 C 28.921875 15.207031 28.867188 15.390625 28.65625 15.546875 Z M 28.65625 15.546875 " fill-opacity="1" fill-rule="evenodd"/><path fill="#000000" d="M 42.484375 18.6875 C 42.898438 19.175781 43.433594 19.550781 44.085938 19.816406 C 44.742188 20.078125 45.429688 20.195312 46.160156 20.164062 C 47.875 20.164062 49.132812 19.265625 49.132812 18.039062 L 49.132812 17.394531 L 49.089844 17.394531 C 48.152344 18.152344 46.871094 18.542969 45.5625 18.484375 C 44.523438 18.507812 43.550781 18.3125 42.640625 17.902344 C 41.734375 17.492188 41.015625 16.925781 40.488281 16.195312 C 39.953125 15.464844 39.683594 14.671875 39.675781 13.820312 C 39.664062 12.972656 39.917969 12.175781 40.433594 11.4375 C 40.945312 10.699219 41.652344 10.121094 42.550781 9.699219 C 43.449219 9.273438 44.417969 9.066406 45.457031 9.074219 C 46.125 9.042969 46.773438 9.113281 47.40625 9.296875 C 48.039062 9.480469 48.597656 9.757812 49.089844 10.128906 L 49.132812 10.128906 L 49.132812 9.246094 L 52.066406 9.246094 L 52.066406 18.007812 C 52.066406 20.554688 49.609375 22.320312 46.160156 22.320312 C 45.027344 22.371094 43.945312 22.207031 42.910156 21.828125 C 41.875 21.453125 41.003906 20.902344 40.292969 20.179688 Z M 49.011719 13.234375 C 49.011719 12.21875 47.605469 11.28125 46.035156 11.28125 C 44.054688 11.28125 42.730469 12.269531 42.730469 13.746094 C 42.671875 14.445312 42.992188 15.132812 43.605469 15.617188 C 44.25 16.132812 45.019531 16.351562 45.910156 16.273438 C 47.625 16.273438 49.011719 15.394531 49.011719 14.289062 Z M 59.785156 8.992188 C 63.359375 8.992188 65.960938 11.078125 65.960938 13.746094 C 65.960938 16.410156 63.359375 18.5 59.785156 18.5 C 59.257812 18.527344 58.730469 18.496094 58.210938 18.40625 C 57.691406 18.316406 57.199219 18.171875 56.726562 17.96875 C 56.257812 17.769531 55.828125 17.519531 55.441406 17.222656 C 55.054688 16.921875 54.726562 16.589844 54.453125 16.21875 C 54.179688 15.84375 53.96875 15.449219 53.828125 15.027344 C 53.683594 14.609375 53.613281 14.179688 53.613281 13.746094 C 53.613281 13.308594 53.683594 12.882812 53.828125 12.460938 C 53.96875 12.042969 54.179688 11.648438 54.453125 11.273438 C 54.726562 10.902344 55.054688 10.566406 55.441406 10.269531 C 55.828125 9.972656 56.257812 9.722656 56.726562 9.519531 C 57.199219 9.320312 57.691406 9.175781 58.210938 9.085938 C 58.730469 8.996094 59.257812 8.964844 59.785156 8.992188 Z M 59.785156 11.195312 C 59.375 11.199219 58.980469 11.269531 58.601562 11.398438 C 58.222656 11.53125 57.886719 11.71875 57.597656 11.957031 C 57.3125 12.195312 57.089844 12.472656 56.933594 12.785156 C 56.78125 13.097656 56.707031 13.421875 56.710938 13.757812 C 56.710938 14.09375 56.789062 14.417969 56.945312 14.726562 C 57.105469 15.039062 57.328125 15.3125 57.621094 15.550781 C 57.910156 15.785156 58.246094 15.96875 58.625 16.097656 C 59.007812 16.226562 59.402344 16.292969 59.816406 16.292969 C 60.226562 16.289062 60.621094 16.226562 61 16.09375 C 61.382812 15.964844 61.714844 15.78125 62.003906 15.539062 C 62.296875 15.300781 62.519531 15.027344 62.675781 14.714844 C 62.832031 14.40625 62.90625 14.082031 62.90625 13.746094 C 62.945312 13.027344 62.65625 12.410156 62.03125 11.902344 C 61.410156 11.394531 60.664062 11.160156 59.785156 11.199219 Z M 67.546875 9.246094 L 70.480469 9.246094 L 70.480469 10.042969 L 70.523438 10.042969 C 71.519531 9.289062 72.695312 8.9375 74.054688 8.992188 C 77.203125 9.039062 79.726562 11.148438 79.734375 13.738281 C 79.738281 16.328125 77.222656 18.441406 74.074219 18.5 C 72.832031 18.523438 71.617188 18.1875 70.648438 17.550781 L 70.605469 17.550781 L 70.605469 22.066406 L 67.546875 22.066406 Z M 73.582031 11.214844 C 71.96875 11.214844 70.605469 12.148438 70.605469 13.167969 L 70.605469 14.304688 C 70.605469 15.394531 71.929688 16.292969 73.597656 16.292969 C 74.011719 16.289062 74.40625 16.222656 74.78125 16.09375 C 75.160156 15.960938 75.496094 15.777344 75.785156 15.539062 C 76.070312 15.300781 76.292969 15.027344 76.449219 14.714844 C 76.605469 14.40625 76.679688 14.082031 76.675781 13.746094 C 76.675781 13.410156 76.597656 13.085938 76.441406 12.777344 C 76.285156 12.46875 76.0625 12.195312 75.769531 11.957031 C 75.480469 11.71875 75.144531 11.535156 74.765625 11.40625 C 74.386719 11.277344 73.992188 11.214844 73.582031 11.214844 Z M 85.621094 12.878906 C 87.625 12.660156 88.226562 12.421875 88.226562 11.960938 C 88.226562 11.367188 87.460938 11.011719 86.285156 11.011719 C 85.976562 10.992188 85.675781 11.015625 85.375 11.082031 C 85.078125 11.148438 84.804688 11.257812 84.554688 11.40625 C 84.304688 11.554688 84.09375 11.734375 83.921875 11.941406 C 83.75 12.152344 83.628906 12.378906 83.558594 12.625 L 80.664062 12.132812 C 81.078125 10.296875 83.371094 8.992188 86.199219 8.992188 C 89.402344 8.992188 91.386719 10.332031 91.386719 12.523438 L 91.386719 18.246094 L 88.636719 18.246094 L 88.636719 17.261719 L 88.59375 17.261719 C 88.128906 17.691406 87.574219 18.015625 86.921875 18.234375 C 86.273438 18.449219 85.597656 18.539062 84.898438 18.5 C 82.480469 18.5 80.808594 17.414062 80.808594 15.816406 C 80.808594 14.136719 82.171875 13.269531 85.621094 12.878906 Z M 88.472656 13.828125 L 88.433594 13.828125 C 88.160156 14.152344 87.585938 14.339844 86.097656 14.5625 C 84.300781 14.832031 83.660156 15.121094 83.660156 15.644531 C 83.660156 16.191406 84.199219 16.429688 85.355469 16.429688 C 87.109375 16.429688 88.472656 15.765625 88.472656 14.898438 Z M 97.203125 17.753906 L 92.144531 9.246094 L 95.511719 9.246094 L 98.835938 15.121094 L 98.875 15.121094 L 102.160156 9.246094 L 105.546875 9.246094 L 97.96875 22.066406 L 94.601562 22.066406 Z M 97.203125 17.753906 " fill-opacity="1" fill-rule="nonzero"/></svg>